<svg width="31" height="32" viewBox="0 0 31 32" fill="none" xmlns="http://www.w3.org/2000/svg">
<path d="M15.5 10.6875C14.4493 10.6875 13.4222 10.9991 12.5485 11.5828C11.6749 12.1666 10.994 12.9963 10.5919 13.967C10.1898 14.9377 10.0846 16.0059 10.2896 17.0364C10.4946 18.0669 11.0005 19.0135 11.7435 19.7565C12.4865 20.4995 13.4331 21.0054 14.4636 21.2104C15.4941 21.4154 16.5623 21.3102 17.533 20.9081C18.5037 20.506 19.3334 19.8251 19.9172 18.9515C20.5009 18.0778 20.8125 17.0507 20.8125 16C20.8083 14.5923 20.2472 13.2435 19.2519 12.2481C18.2565 11.2528 16.9077 10.6917 15.5 10.6875ZM26.9697 16C26.9669 16.4964 26.9305 16.992 26.8608 17.4835L30.0941 20.0149C30.2349 20.1312 30.3298 20.2938 30.3618 20.4736C30.3938 20.6534 30.3608 20.8387 30.2687 20.9964L27.2101 26.277C27.1171 26.4334 26.972 26.5519 26.8002 26.6118C26.6285 26.6716 26.4411 26.669 26.2711 26.6044L22.4693 25.0771C21.6777 25.6867 20.8114 26.1926 19.8914 26.5825L19.323 30.6187C19.2912 30.7995 19.1976 30.9636 19.0582 31.083C18.9188 31.2024 18.7422 31.2698 18.5587 31.2734H12.4413C12.2611 31.2699 12.0874 31.2054 11.9486 31.0905C11.8098 30.9756 11.714 30.817 11.677 30.6406L11.1085 26.6044C10.1861 26.219 9.31914 25.7123 8.53066 25.0977L4.7289 26.625C4.55896 26.6897 4.37165 26.6924 4.19991 26.6326C4.02817 26.5729 3.883 26.4545 3.78992 26.2983L0.731243 21.0183C0.639176 20.8606 0.606192 20.6753 0.638186 20.4955C0.670181 20.3157 0.765068 20.1531 0.905891 20.0368L4.13921 17.5054C4.07025 17.0065 4.03387 16.5036 4.03031 16C4.03307 15.5036 4.06945 15.008 4.13921 14.5165L0.905891 11.9851C0.765068 11.8688 0.670181 11.7062 0.638186 11.5264C0.606192 11.3466 0.639176 11.1613 0.731243 11.0036L3.78992 5.72297C3.8829 5.56664 4.02803 5.44812 4.19977 5.38824C4.37152 5.32836 4.55888 5.33096 4.7289 5.39559L8.53066 6.92293C9.3223 6.31333 10.1886 5.80742 11.1085 5.4175L11.677 1.38133C11.7088 1.20054 11.8024 1.0364 11.9418 0.916979C12.0812 0.797553 12.2578 0.730247 12.4413 0.726562H18.5587C18.7389 0.73007 18.9125 0.794557 19.0514 0.909496C19.1902 1.02444 19.2859 1.18304 19.323 1.35941L19.8914 5.39559C20.8151 5.78072 21.6831 6.28745 22.4726 6.90234L26.2711 5.375C26.441 5.31031 26.6283 5.30761 26.8001 5.36737C26.9718 5.42712 27.117 5.54551 27.2101 5.70172L30.2687 10.9823C30.3608 11.1401 30.3938 11.3254 30.3618 11.5052C30.3298 11.685 30.2349 11.8475 30.0941 11.9638L26.8608 14.4952C26.9297 14.9939 26.9661 15.4966 26.9697 16Z" fill="#F7F5F5" fill-opacity="0.8"/>
</svg>
