<svg width="294" height="71" viewBox="0 0 294 71" fill="none" xmlns="http://www.w3.org/2000/svg">
<path d="M8.541 11.781L6.513 9.896C6.071 10.026 5.60733 10.091 5.122 10.091C4.28133 10.091 3.51867 9.896 2.834 9.506C2.14933 9.10733 1.60767 8.557 1.209 7.855C0.819 7.14433 0.624 6.34267 0.624 5.45C0.624 4.55733 0.819 3.76 1.209 3.058C1.60767 2.34733 2.14933 1.797 2.834 1.407C3.51867 1.00833 4.28133 0.809 5.122 0.809C5.97133 0.809 6.73833 1.00833 7.423 1.407C8.10767 1.797 8.645 2.34733 9.035 3.058C9.425 3.76 9.62 4.55733 9.62 5.45C9.62 6.36867 9.41633 7.18767 9.009 7.907C8.60167 8.61767 8.04267 9.16367 7.332 9.545L9.763 11.781H8.541ZM1.56 5.45C1.56 6.22133 1.716 6.90167 2.028 7.491C2.34 8.07167 2.76467 8.518 3.302 8.83C3.83933 9.142 4.446 9.298 5.122 9.298C5.798 9.298 6.40467 9.142 6.942 8.83C7.47933 8.518 7.904 8.07167 8.216 7.491C8.528 6.90167 8.684 6.22133 8.684 5.45C8.684 4.67867 8.528 4.00267 8.216 3.422C7.904 2.84133 7.47933 2.395 6.942 2.083C6.40467 1.771 5.798 1.615 5.122 1.615C4.446 1.615 3.83933 1.771 3.302 2.083C2.76467 2.395 2.34 2.84133 2.028 3.422C1.716 4.00267 1.56 4.67867 1.56 5.45ZM18.2268 2.902V10H17.3168V8.752C17.1088 9.194 16.7881 9.532 16.3548 9.766C15.9215 10 15.4361 10.117 14.8988 10.117C14.0495 10.117 13.3561 9.857 12.8188 9.337C12.2815 8.80833 12.0128 8.04567 12.0128 7.049V2.902H12.9098V6.945C12.9098 7.71633 13.1005 8.30567 13.4818 8.713C13.8718 9.12033 14.4005 9.324 15.0678 9.324C15.7525 9.324 16.2985 9.10733 16.7058 8.674C17.1131 8.24067 17.3168 7.60367 17.3168 6.763V2.902H18.2268ZM20.6684 6.438C20.6684 5.71 20.8114 5.073 21.0974 4.527C21.392 3.97233 21.795 3.54767 22.3064 3.253C22.8264 2.94967 23.4114 2.798 24.0614 2.798C24.7374 2.798 25.318 2.954 25.8034 3.266C26.2974 3.578 26.6527 3.97667 26.8694 4.462V2.902H27.7794V10H26.8694V8.427C26.644 8.91233 26.2844 9.31533 25.7904 9.636C25.305 9.948 24.7244 10.104 24.0484 10.104C23.407 10.104 22.8264 9.95233 22.3064 9.649C21.795 9.34567 21.392 8.91667 21.0974 8.362C20.8114 7.80733 20.6684 7.166 20.6684 6.438ZM26.8694 6.451C26.8694 5.879 26.7524 5.37633 26.5184 4.943C26.2844 4.50967 25.9637 4.176 25.5564 3.942C25.1577 3.708 24.7157 3.591 24.2304 3.591C23.7277 3.591 23.277 3.70367 22.8784 3.929C22.4797 4.15433 22.1634 4.48367 21.9294 4.917C21.704 5.34167 21.5914 5.84867 21.5914 6.438C21.5914 7.01867 21.704 7.53 21.9294 7.972C22.1634 8.40533 22.4797 8.739 22.8784 8.973C23.277 9.19833 23.7277 9.311 24.2304 9.311C24.7157 9.311 25.1577 9.194 25.5564 8.96C25.9637 8.726 26.2844 8.39233 26.5184 7.959C26.7524 7.52567 26.8694 7.023 26.8694 6.451ZM33.9648 2.772C34.8142 2.772 35.5075 3.03633 36.0448 3.565C36.5822 4.085 36.8508 4.84333 36.8508 5.84V10H35.9538V5.944C35.9538 5.17267 35.7588 4.58333 35.3688 4.176C34.9875 3.76867 34.4632 3.565 33.7958 3.565C33.1112 3.565 32.5652 3.78167 32.1578 4.215C31.7505 4.64833 31.5468 5.28533 31.5468 6.126V10H30.6368V2.902H31.5468V4.111C31.7722 3.67767 32.0972 3.34833 32.5218 3.123C32.9465 2.889 33.4275 2.772 33.9648 2.772ZM39.2274 6.438C39.2274 5.71 39.3747 5.073 39.6694 4.527C39.9641 3.97233 40.3671 3.54767 40.8784 3.253C41.3984 2.94967 41.9834 2.798 42.6334 2.798C43.2574 2.798 43.8207 2.94967 44.3234 3.253C44.8261 3.55633 45.1944 3.95067 45.4284 4.436V0.38H46.3384V10H45.4284V8.414C45.2117 8.908 44.8564 9.31533 44.3624 9.636C43.8684 9.948 43.2877 10.104 42.6204 10.104C41.9704 10.104 41.3854 9.95233 40.8654 9.649C40.3541 9.34567 39.9511 8.91667 39.6564 8.362C39.3704 7.80733 39.2274 7.166 39.2274 6.438ZM45.4284 6.451C45.4284 5.879 45.3114 5.37633 45.0774 4.943C44.8434 4.50967 44.5227 4.176 44.1154 3.942C43.7167 3.708 43.2747 3.591 42.7894 3.591C42.2867 3.591 41.8361 3.70367 41.4374 3.929C41.0387 4.15433 40.7224 4.48367 40.4884 4.917C40.2631 5.34167 40.1504 5.84867 40.1504 6.438C40.1504 7.01867 40.2631 7.53 40.4884 7.972C40.7224 8.40533 41.0387 8.739 41.4374 8.973C41.8361 9.19833 42.2867 9.311 42.7894 9.311C43.2747 9.311 43.7167 9.194 44.1154 8.96C44.5227 8.726 44.8434 8.39233 45.0774 7.959C45.3114 7.52567 45.4284 7.023 45.4284 6.451ZM59.6922 2.902V10H58.7822V8.752C58.5742 9.194 58.2536 9.532 57.8202 9.766C57.3869 10 56.9016 10.117 56.3642 10.117C55.5149 10.117 54.8216 9.857 54.2842 9.337C53.7469 8.80833 53.4782 8.04567 53.4782 7.049V2.902H54.3752V6.945C54.3752 7.71633 54.5659 8.30567 54.9472 8.713C55.3372 9.12033 55.8659 9.324 56.5332 9.324C57.2179 9.324 57.7639 9.10733 58.1712 8.674C58.5786 8.24067 58.7822 7.60367 58.7822 6.763V2.902H59.6922ZM65.8778 2.772C66.7271 2.772 67.4205 3.03633 67.9578 3.565C68.4951 4.085 68.7638 4.84333 68.7638 5.84V10H67.8668V5.944C67.8668 5.17267 67.6718 4.58333 67.2818 4.176C66.9005 3.76867 66.3761 3.565 65.7088 3.565C65.0241 3.565 64.4781 3.78167 64.0708 4.215C63.6635 4.64833 63.4598 5.28533 63.4598 6.126V10H62.5498V2.902H63.4598V4.111C63.6851 3.67767 64.0101 3.34833 64.4348 3.123C64.8595 2.889 65.3405 2.772 65.8778 2.772ZM76.3587 1.563C76.1767 1.563 76.0207 1.498 75.8907 1.368C75.7607 1.238 75.6957 1.07767 75.6957 0.887C75.6957 0.696333 75.7607 0.540333 75.8907 0.418999C76.0207 0.288999 76.1767 0.224 76.3587 0.224C76.5407 0.224 76.6967 0.288999 76.8267 0.418999C76.9567 0.540333 77.0217 0.696333 77.0217 0.887C77.0217 1.07767 76.9567 1.238 76.8267 1.368C76.6967 1.498 76.5407 1.563 76.3587 1.563ZM76.8137 2.902V10H75.9037V2.902H76.8137ZM88.1045 2.772C88.9365 2.772 89.6125 3.03633 90.1325 3.565C90.6611 4.085 90.9255 4.84333 90.9255 5.84V10H90.0285V5.944C90.0285 5.17267 89.8421 4.58333 89.4695 4.176C89.0968 3.76867 88.5898 3.565 87.9485 3.565C87.2811 3.565 86.7481 3.786 86.3495 4.228C85.9508 4.67 85.7515 5.31133 85.7515 6.152V10H84.8545V5.944C84.8545 5.17267 84.6681 4.58333 84.2955 4.176C83.9228 3.76867 83.4115 3.565 82.7615 3.565C82.0941 3.565 81.5611 3.786 81.1625 4.228C80.7638 4.67 80.5645 5.31133 80.5645 6.152V10H79.6545V2.902H80.5645V4.124C80.7898 3.682 81.1105 3.34833 81.5265 3.123C81.9425 2.889 82.4061 2.772 82.9175 2.772C83.5328 2.772 84.0701 2.91933 84.5295 3.214C84.9975 3.50867 85.3355 3.942 85.5435 4.514C85.7341 3.95067 86.0591 3.52167 86.5185 3.227C86.9865 2.92367 87.5151 2.772 88.1045 2.772ZM94.6234 4.462C94.8488 3.98533 95.2041 3.591 95.6894 3.279C96.1834 2.95833 96.7684 2.798 97.4444 2.798C98.0858 2.798 98.6621 2.94967 99.1734 3.253C99.6934 3.54767 100.096 3.97233 100.382 4.527C100.677 5.073 100.824 5.71 100.824 6.438C100.824 7.166 100.677 7.80733 100.382 8.362C100.096 8.91667 99.6934 9.34567 99.1734 9.649C98.6621 9.95233 98.0858 10.104 97.4444 10.104C96.7771 10.104 96.1964 9.948 95.7024 9.636C95.2084 9.31533 94.8488 8.91667 94.6234 8.44V13.354H93.7264V2.902H94.6234V4.462ZM99.9014 6.438C99.9014 5.84867 99.7844 5.34167 99.5504 4.917C99.3251 4.48367 99.0131 4.15433 98.6144 3.929C98.2158 3.70367 97.7651 3.591 97.2624 3.591C96.7771 3.591 96.3308 3.708 95.9234 3.942C95.5248 4.176 95.2084 4.50967 94.9744 4.943C94.7404 5.37633 94.6234 5.879 94.6234 6.451C94.6234 7.023 94.7404 7.52567 94.9744 7.959C95.2084 8.39233 95.5248 8.726 95.9234 8.96C96.3308 9.194 96.7771 9.311 97.2624 9.311C97.7651 9.311 98.2158 9.19833 98.6144 8.973C99.0131 8.739 99.3251 8.40533 99.5504 7.972C99.7844 7.53 99.9014 7.01867 99.9014 6.438ZM104.189 4.163C104.388 3.721 104.692 3.37867 105.099 3.136C105.515 2.89333 106.022 2.772 106.62 2.772V3.721H106.373C105.714 3.721 105.186 3.89867 104.787 4.254C104.388 4.60933 104.189 5.203 104.189 6.035V10H103.279V2.902H104.189V4.163ZM109.224 1.563C109.042 1.563 108.886 1.498 108.756 1.368C108.626 1.238 108.561 1.07767 108.561 0.887C108.561 0.696333 108.626 0.540333 108.756 0.418999C108.886 0.288999 109.042 0.224 109.224 0.224C109.406 0.224 109.562 0.288999 109.692 0.418999C109.822 0.540333 109.887 0.696333 109.887 0.887C109.887 1.07767 109.822 1.238 109.692 1.368C109.562 1.498 109.406 1.563 109.224 1.563ZM109.679 2.902V10H108.769V2.902H109.679ZM120.97 2.772C121.802 2.772 122.478 3.03633 122.998 3.565C123.526 4.085 123.791 4.84333 123.791 5.84V10H122.894V5.944C122.894 5.17267 122.707 4.58333 122.335 4.176C121.962 3.76867 121.455 3.565 120.814 3.565C120.146 3.565 119.613 3.786 119.215 4.228C118.816 4.67 118.617 5.31133 118.617 6.152V10H117.72V5.944C117.72 5.17267 117.533 4.58333 117.161 4.176C116.788 3.76867 116.277 3.565 115.627 3.565C114.959 3.565 114.426 3.786 114.028 4.228C113.629 4.67 113.43 5.31133 113.43 6.152V10H112.52V2.902H113.43V4.124C113.655 3.682 113.976 3.34833 114.392 3.123C114.808 2.889 115.271 2.772 115.783 2.772C116.398 2.772 116.935 2.91933 117.395 3.214C117.863 3.50867 118.201 3.942 118.409 4.514C118.599 3.95067 118.924 3.52167 119.384 3.227C119.852 2.92367 120.38 2.772 120.97 2.772ZM133.014 6.087C133.014 6.399 133.005 6.63733 132.988 6.802H127.099C127.125 7.33933 127.255 7.79867 127.489 8.18C127.723 8.56133 128.03 8.85167 128.412 9.051C128.793 9.24167 129.209 9.337 129.66 9.337C130.249 9.337 130.743 9.194 131.142 8.908C131.549 8.622 131.818 8.23633 131.948 7.751H132.91C132.736 8.44433 132.364 9.012 131.792 9.454C131.228 9.88733 130.518 10.104 129.66 10.104C128.992 10.104 128.394 9.95667 127.866 9.662C127.337 9.35867 126.921 8.934 126.618 8.388C126.323 7.83333 126.176 7.18767 126.176 6.451C126.176 5.71433 126.323 5.06867 126.618 4.514C126.912 3.95933 127.324 3.53467 127.853 3.24C128.381 2.94533 128.984 2.798 129.66 2.798C130.336 2.798 130.925 2.94533 131.428 3.24C131.939 3.53467 132.329 3.93333 132.598 4.436C132.875 4.93 133.014 5.48033 133.014 6.087ZM132.091 6.061C132.099 5.53233 131.991 5.08167 131.766 4.709C131.549 4.33633 131.25 4.05467 130.869 3.864C130.487 3.67333 130.071 3.578 129.621 3.578C128.945 3.578 128.368 3.79467 127.892 4.228C127.415 4.66133 127.151 5.27233 127.099 6.061H132.091ZM141.607 2.902V10H140.697V8.752C140.489 9.194 140.169 9.532 139.735 9.766C139.302 10 138.817 10.117 138.279 10.117C137.43 10.117 136.737 9.857 136.199 9.337C135.662 8.80833 135.393 8.04567 135.393 7.049V2.902H136.29V6.945C136.29 7.71633 136.481 8.30567 136.862 8.713C137.252 9.12033 137.781 9.324 138.448 9.324C139.133 9.324 139.679 9.10733 140.086 8.674C140.494 8.24067 140.697 7.60367 140.697 6.763V2.902H141.607ZM145.375 4.163C145.574 3.721 145.878 3.37867 146.285 3.136C146.701 2.89333 147.208 2.772 147.806 2.772V3.721H147.559C146.9 3.721 146.372 3.89867 145.973 4.254C145.574 4.60933 145.375 5.203 145.375 6.035V10H144.465V2.902H145.375V4.163ZM153.886 6.438C153.886 5.71 154.029 5.073 154.315 4.527C154.61 3.97233 155.013 3.54767 155.524 3.253C156.044 2.94967 156.629 2.798 157.279 2.798C157.955 2.798 158.536 2.954 159.021 3.266C159.515 3.578 159.871 3.97667 160.087 4.462V2.902H160.997V10H160.087V8.427C159.862 8.91233 159.502 9.31533 159.008 9.636C158.523 9.948 157.942 10.104 157.266 10.104C156.625 10.104 156.044 9.95233 155.524 9.649C155.013 9.34567 154.61 8.91667 154.315 8.362C154.029 7.80733 153.886 7.166 153.886 6.438ZM160.087 6.451C160.087 5.879 159.97 5.37633 159.736 4.943C159.502 4.50967 159.182 4.176 158.774 3.942C158.376 3.708 157.934 3.591 157.448 3.591C156.946 3.591 156.495 3.70367 156.096 3.929C155.698 4.15433 155.381 4.48367 155.147 4.917C154.922 5.34167 154.809 5.84867 154.809 6.438C154.809 7.01867 154.922 7.53 155.147 7.972C155.381 8.40533 155.698 8.739 156.096 8.973C156.495 9.19833 156.946 9.311 157.448 9.311C157.934 9.311 158.376 9.194 158.774 8.96C159.182 8.726 159.502 8.39233 159.736 7.959C159.97 7.52567 160.087 7.023 160.087 6.451ZM167.183 2.772C168.032 2.772 168.726 3.03633 169.263 3.565C169.8 4.085 170.069 4.84333 170.069 5.84V10H169.172V5.944C169.172 5.17267 168.977 4.58333 168.587 4.176C168.206 3.76867 167.681 3.565 167.014 3.565C166.329 3.565 165.783 3.78167 165.376 4.215C164.969 4.64833 164.765 5.28533 164.765 6.126V10H163.855V2.902H164.765V4.111C164.99 3.67767 165.315 3.34833 165.74 3.123C166.165 2.889 166.646 2.772 167.183 2.772ZM175.968 10.104C175.301 10.104 174.699 9.95667 174.161 9.662C173.633 9.35867 173.212 8.934 172.9 8.388C172.597 7.83333 172.445 7.18767 172.445 6.451C172.445 5.71433 172.601 5.073 172.913 4.527C173.225 3.97233 173.65 3.54767 174.187 3.253C174.725 2.94967 175.327 2.798 175.994 2.798C176.662 2.798 177.264 2.94967 177.801 3.253C178.347 3.54767 178.772 3.97233 179.075 4.527C179.387 5.073 179.543 5.71433 179.543 6.451C179.543 7.179 179.387 7.82033 179.075 8.375C178.763 8.92967 178.334 9.35867 177.788 9.662C177.242 9.95667 176.636 10.104 175.968 10.104ZM175.968 9.311C176.436 9.311 176.87 9.207 177.268 8.999C177.667 8.78233 177.988 8.46167 178.23 8.037C178.482 7.60367 178.607 7.075 178.607 6.451C178.607 5.827 178.486 5.30267 178.243 4.878C178.001 4.44467 177.68 4.124 177.281 3.916C176.883 3.69933 176.449 3.591 175.981 3.591C175.513 3.591 175.08 3.69933 174.681 3.916C174.283 4.124 173.962 4.44467 173.719 4.878C173.485 5.30267 173.368 5.827 173.368 6.451C173.368 7.075 173.485 7.60367 173.719 8.037C173.962 8.46167 174.278 8.78233 174.668 8.999C175.067 9.207 175.5 9.311 175.968 9.311ZM185.31 2.772C186.16 2.772 186.853 3.03633 187.39 3.565C187.928 4.085 188.196 4.84333 188.196 5.84V10H187.299V5.944C187.299 5.17267 187.104 4.58333 186.714 4.176C186.333 3.76867 185.809 3.565 185.141 3.565C184.457 3.565 183.911 3.78167 183.503 4.215C183.096 4.64833 182.892 5.28533 182.892 6.126V10H181.982V2.902H182.892V4.111C183.118 3.67767 183.443 3.34833 183.867 3.123C184.292 2.889 184.773 2.772 185.31 2.772ZM196.839 2.902L192.627 13.341H191.678L193.056 9.961L190.144 2.902H191.145L193.563 8.96L195.903 2.902H196.839ZM207.303 2.772C208.135 2.772 208.811 3.03633 209.331 3.565C209.859 4.085 210.124 4.84333 210.124 5.84V10H209.227V5.944C209.227 5.17267 209.04 4.58333 208.668 4.176C208.295 3.76867 207.788 3.565 207.147 3.565C206.479 3.565 205.946 3.786 205.548 4.228C205.149 4.67 204.95 5.31133 204.95 6.152V10H204.053V5.944C204.053 5.17267 203.866 4.58333 203.494 4.176C203.121 3.76867 202.61 3.565 201.96 3.565C201.292 3.565 200.759 3.786 200.361 4.228C199.962 4.67 199.763 5.31133 199.763 6.152V10H198.853V2.902H199.763V4.124C199.988 3.682 200.309 3.34833 200.725 3.123C201.141 2.889 201.604 2.772 202.116 2.772C202.731 2.772 203.268 2.91933 203.728 3.214C204.196 3.50867 204.534 3.942 204.742 4.514C204.932 3.95067 205.257 3.52167 205.717 3.227C206.185 2.92367 206.713 2.772 207.303 2.772ZM219.347 6.087C219.347 6.399 219.338 6.63733 219.321 6.802H213.432C213.458 7.33933 213.588 7.79867 213.822 8.18C214.056 8.56133 214.363 8.85167 214.745 9.051C215.126 9.24167 215.542 9.337 215.993 9.337C216.582 9.337 217.076 9.194 217.475 8.908C217.882 8.622 218.151 8.23633 218.281 7.751H219.243C219.069 8.44433 218.697 9.012 218.125 9.454C217.561 9.88733 216.851 10.104 215.993 10.104C215.325 10.104 214.727 9.95667 214.199 9.662C213.67 9.35867 213.254 8.934 212.951 8.388C212.656 7.83333 212.509 7.18767 212.509 6.451C212.509 5.71433 212.656 5.06867 212.951 4.514C213.245 3.95933 213.657 3.53467 214.186 3.24C214.714 2.94533 215.317 2.798 215.993 2.798C216.669 2.798 217.258 2.94533 217.761 3.24C218.272 3.53467 218.662 3.93333 218.931 4.436C219.208 4.93 219.347 5.48033 219.347 6.087ZM218.424 6.061C218.432 5.53233 218.324 5.08167 218.099 4.709C217.882 4.33633 217.583 4.05467 217.202 3.864C216.82 3.67333 216.404 3.578 215.954 3.578C215.278 3.578 214.701 3.79467 214.225 4.228C213.748 4.66133 213.484 5.27233 213.432 6.061H218.424ZM225.723 6.438C225.723 5.71 225.866 5.073 226.152 4.527C226.447 3.97233 226.85 3.54767 227.361 3.253C227.881 2.94967 228.466 2.798 229.116 2.798C229.792 2.798 230.373 2.954 230.858 3.266C231.352 3.578 231.707 3.97667 231.924 4.462V2.902H232.834V10H231.924V8.427C231.699 8.91233 231.339 9.31533 230.845 9.636C230.36 9.948 229.779 10.104 229.103 10.104C228.462 10.104 227.881 9.95233 227.361 9.649C226.85 9.34567 226.447 8.91667 226.152 8.362C225.866 7.80733 225.723 7.166 225.723 6.438ZM231.924 6.451C231.924 5.879 231.807 5.37633 231.573 4.943C231.339 4.50967 231.018 4.176 230.611 3.942C230.212 3.708 229.77 3.591 229.285 3.591C228.782 3.591 228.332 3.70367 227.933 3.929C227.534 4.15433 227.218 4.48367 226.984 4.917C226.759 5.34167 226.646 5.84867 226.646 6.438C226.646 7.01867 226.759 7.53 226.984 7.972C227.218 8.40533 227.534 8.739 227.933 8.973C228.332 9.19833 228.782 9.311 229.285 9.311C229.77 9.311 230.212 9.194 230.611 8.96C231.018 8.726 231.339 8.39233 231.573 7.959C231.807 7.52567 231.924 7.023 231.924 6.451ZM238.136 10.104C237.321 10.104 236.654 9.91767 236.134 9.545C235.622 9.16367 235.336 8.648 235.276 7.998H236.212C236.255 8.39667 236.441 8.72167 236.771 8.973C237.109 9.21567 237.559 9.337 238.123 9.337C238.617 9.337 239.002 9.22 239.28 8.986C239.566 8.752 239.709 8.46167 239.709 8.115C239.709 7.87233 239.631 7.673 239.475 7.517C239.319 7.361 239.119 7.23967 238.877 7.153C238.643 7.05767 238.322 6.958 237.915 6.854C237.386 6.71533 236.957 6.57667 236.628 6.438C236.298 6.29933 236.017 6.09567 235.783 5.827C235.557 5.54967 235.445 5.18133 235.445 4.722C235.445 4.37533 235.549 4.05467 235.757 3.76C235.965 3.46533 236.259 3.23133 236.641 3.058C237.022 2.88467 237.455 2.798 237.941 2.798C238.703 2.798 239.319 2.993 239.787 3.383C240.255 3.76433 240.506 4.293 240.541 4.969H239.631C239.605 4.553 239.44 4.21933 239.137 3.968C238.842 3.708 238.435 3.578 237.915 3.578C237.455 3.578 237.083 3.68633 236.797 3.903C236.511 4.11967 236.368 4.38833 236.368 4.709C236.368 4.98633 236.45 5.216 236.615 5.398C236.788 5.57133 237 5.71 237.252 5.814C237.503 5.90933 237.841 6.01767 238.266 6.139C238.777 6.27767 239.184 6.412 239.488 6.542C239.791 6.672 240.051 6.86267 240.268 7.114C240.484 7.36533 240.597 7.699 240.606 8.115C240.606 8.49633 240.502 8.83867 240.294 9.142C240.086 9.43667 239.795 9.67067 239.423 9.844C239.05 10.0173 238.621 10.104 238.136 10.104ZM245.542 10.104C244.728 10.104 244.06 9.91767 243.54 9.545C243.029 9.16367 242.743 8.648 242.682 7.998H243.618C243.662 8.39667 243.848 8.72167 244.177 8.973C244.515 9.21567 244.966 9.337 245.529 9.337C246.023 9.337 246.409 9.22 246.686 8.986C246.972 8.752 247.115 8.46167 247.115 8.115C247.115 7.87233 247.037 7.673 246.881 7.517C246.725 7.361 246.526 7.23967 246.283 7.153C246.049 7.05767 245.729 6.958 245.321 6.854C244.793 6.71533 244.364 6.57667 244.034 6.438C243.705 6.29933 243.423 6.09567 243.189 5.827C242.964 5.54967 242.851 5.18133 242.851 4.722C242.851 4.37533 242.955 4.05467 243.163 3.76C243.371 3.46533 243.666 3.23133 244.047 3.058C244.429 2.88467 244.862 2.798 245.347 2.798C246.11 2.798 246.725 2.993 247.193 3.383C247.661 3.76433 247.913 4.293 247.947 4.969H247.037C247.011 4.553 246.847 4.21933 246.543 3.968C246.249 3.708 245.841 3.578 245.321 3.578C244.862 3.578 244.489 3.68633 244.203 3.903C243.917 4.11967 243.774 4.38833 243.774 4.709C243.774 4.98633 243.857 5.216 244.021 5.398C244.195 5.57133 244.407 5.71 244.658 5.814C244.91 5.90933 245.248 6.01767 245.672 6.139C246.184 6.27767 246.591 6.412 246.894 6.542C247.198 6.672 247.458 6.86267 247.674 7.114C247.891 7.36533 248.004 7.699 248.012 8.115C248.012 8.49633 247.908 8.83867 247.7 9.142C247.492 9.43667 247.202 9.67067 246.829 9.844C246.457 10.0173 246.028 10.104 245.542 10.104ZM256.927 6.087C256.927 6.399 256.919 6.63733 256.901 6.802H251.012C251.038 7.33933 251.168 7.79867 251.402 8.18C251.636 8.56133 251.944 8.85167 252.325 9.051C252.707 9.24167 253.123 9.337 253.573 9.337C254.163 9.337 254.657 9.194 255.055 8.908C255.463 8.622 255.731 8.23633 255.861 7.751H256.823C256.65 8.44433 256.277 9.012 255.705 9.454C255.142 9.88733 254.431 10.104 253.573 10.104C252.906 10.104 252.308 9.95667 251.779 9.662C251.251 9.35867 250.835 8.934 250.531 8.388C250.237 7.83333 250.089 7.18767 250.089 6.451C250.089 5.71433 250.237 5.06867 250.531 4.514C250.826 3.95933 251.238 3.53467 251.766 3.24C252.295 2.94533 252.897 2.798 253.573 2.798C254.249 2.798 254.839 2.94533 255.341 3.24C255.853 3.53467 256.243 3.93333 256.511 4.436C256.789 4.93 256.927 5.48033 256.927 6.087ZM256.004 6.061C256.013 5.53233 255.905 5.08167 255.679 4.709C255.463 4.33633 255.164 4.05467 254.782 3.864C254.401 3.67333 253.985 3.578 253.534 3.578C252.858 3.578 252.282 3.79467 251.805 4.228C251.329 4.66133 251.064 5.27233 251.012 6.061H256.004ZM267.822 2.772C268.654 2.772 269.33 3.03633 269.85 3.565C270.379 4.085 270.643 4.84333 270.643 5.84V10H269.746V5.944C269.746 5.17267 269.56 4.58333 269.187 4.176C268.815 3.76867 268.308 3.565 267.666 3.565C266.999 3.565 266.466 3.786 266.067 4.228C265.669 4.67 265.469 5.31133 265.469 6.152V10H264.572V5.944C264.572 5.17267 264.386 4.58333 264.013 4.176C263.641 3.76867 263.129 3.565 262.479 3.565C261.812 3.565 261.279 3.786 260.88 4.228C260.482 4.67 260.282 5.31133 260.282 6.152V10H259.372V2.902H260.282V4.124C260.508 3.682 260.828 3.34833 261.244 3.123C261.66 2.889 262.124 2.772 262.635 2.772C263.251 2.772 263.788 2.91933 264.247 3.214C264.715 3.50867 265.053 3.942 265.261 4.514C265.452 3.95067 265.777 3.52167 266.236 3.227C266.704 2.92367 267.233 2.772 267.822 2.772ZM274.341 4.475C274.575 3.981 274.935 3.578 275.42 3.266C275.914 2.954 276.495 2.798 277.162 2.798C277.812 2.798 278.393 2.94967 278.904 3.253C279.416 3.54767 279.814 3.97233 280.1 4.527C280.395 5.073 280.542 5.71 280.542 6.438C280.542 7.166 280.395 7.80733 280.1 8.362C279.814 8.91667 279.411 9.34567 278.891 9.649C278.38 9.95233 277.804 10.104 277.162 10.104C276.486 10.104 275.901 9.95233 275.407 9.649C274.922 9.337 274.567 8.934 274.341 8.44V10H273.444V0.38H274.341V4.475ZM279.619 6.438C279.619 5.84867 279.502 5.34167 279.268 4.917C279.043 4.48367 278.731 4.15433 278.332 3.929C277.934 3.70367 277.483 3.591 276.98 3.591C276.495 3.591 276.049 3.708 275.641 3.942C275.243 4.176 274.926 4.50967 274.692 4.943C274.458 5.37633 274.341 5.879 274.341 6.451C274.341 7.023 274.458 7.52567 274.692 7.959C274.926 8.39233 275.243 8.726 275.641 8.96C276.049 9.194 276.495 9.311 276.98 9.311C277.483 9.311 277.934 9.19833 278.332 8.973C278.731 8.739 279.043 8.40533 279.268 7.972C279.502 7.53 279.619 7.01867 279.619 6.438ZM283.907 0.38V10H282.997V0.38H283.907ZM286.331 6.438C286.331 5.71 286.474 5.073 286.76 4.527C287.055 3.97233 287.458 3.54767 287.969 3.253C288.489 2.94967 289.074 2.798 289.724 2.798C290.4 2.798 290.981 2.954 291.466 3.266C291.96 3.578 292.316 3.97667 292.532 4.462V2.902H293.442V10H292.532V8.427C292.307 8.91233 291.947 9.31533 291.453 9.636C290.968 9.948 290.387 10.104 289.711 10.104C289.07 10.104 288.489 9.95233 287.969 9.649C287.458 9.34567 287.055 8.91667 286.76 8.362C286.474 7.80733 286.331 7.166 286.331 6.438ZM292.532 6.451C292.532 5.879 292.415 5.37633 292.181 4.943C291.947 4.50967 291.627 4.176 291.219 3.942C290.821 3.708 290.379 3.591 289.893 3.591C289.391 3.591 288.94 3.70367 288.541 3.929C288.143 4.15433 287.826 4.48367 287.592 4.917C287.367 5.34167 287.254 5.84867 287.254 6.438C287.254 7.01867 287.367 7.53 287.592 7.972C287.826 8.40533 288.143 8.739 288.541 8.973C288.94 9.19833 289.391 9.311 289.893 9.311C290.379 9.311 290.821 9.194 291.219 8.96C291.627 8.726 291.947 8.39233 292.181 7.959C292.415 7.52567 292.532 7.023 292.532 6.451ZM7.462 26.087C7.462 26.399 7.45333 26.6373 7.436 26.802H1.547C1.573 27.3393 1.703 27.7987 1.937 28.18C2.171 28.5613 2.47867 28.8517 2.86 29.051C3.24133 29.2417 3.65733 29.337 4.108 29.337C4.69733 29.337 5.19133 29.194 5.59 28.908C5.99733 28.622 6.266 28.2363 6.396 27.751H7.358C7.18467 28.4443 6.812 29.012 6.24 29.454C5.67667 29.8873 4.966 30.104 4.108 30.104C3.44067 30.104 2.84267 29.9567 2.314 29.662C1.78533 29.3587 1.36933 28.934 1.066 28.388C0.771333 27.8333 0.624 27.1877 0.624 26.451C0.624 25.7143 0.771333 25.0687 1.066 24.514C1.36067 23.9593 1.77233 23.5347 2.301 23.24C2.82967 22.9453 3.432 22.798 4.108 22.798C4.784 22.798 5.37333 22.9453 5.876 23.24C6.38733 23.5347 6.77733 23.9333 7.046 24.436C7.32333 24.93 7.462 25.4803 7.462 26.087ZM6.539 26.061C6.54767 25.5323 6.43933 25.0817 6.214 24.709C5.99733 24.3363 5.69833 24.0547 5.317 23.864C4.93567 23.6733 4.51967 23.578 4.069 23.578C3.393 23.578 2.81667 23.7947 2.34 24.228C1.86333 24.6613 1.599 25.2723 1.547 26.061H6.539ZM13.2349 22.772C14.0842 22.772 14.7776 23.0363 15.3149 23.565C15.8522 24.085 16.1209 24.8433 16.1209 25.84V30H15.2239V25.944C15.2239 25.1727 15.0289 24.5833 14.6389 24.176C14.2576 23.7687 13.7332 23.565 13.0659 23.565C12.3812 23.565 11.8352 23.7817 11.4279 24.215C11.0206 24.6483 10.8169 25.2853 10.8169 26.126V30H9.90691V22.902H10.8169V24.111C11.0422 23.6777 11.3672 23.3483 11.7919 23.123C12.2166 22.889 12.6976 22.772 13.2349 22.772ZM21.3575 30.104C20.5428 30.104 19.8755 29.9177 19.3555 29.545C18.8441 29.1637 18.5581 28.648 18.4975 27.998H19.4335C19.4768 28.3967 19.6631 28.7217 19.9925 28.973C20.3305 29.2157 20.7811 29.337 21.3445 29.337C21.8385 29.337 22.2241 29.22 22.5015 28.986C22.7875 28.752 22.9305 28.4617 22.9305 28.115C22.9305 27.8723 22.8525 27.673 22.6965 27.517C22.5405 27.361 22.3411 27.2397 22.0985 27.153C21.8645 27.0577 21.5438 26.958 21.1365 26.854C20.6078 26.7153 20.1788 26.5767 19.8495 26.438C19.5201 26.2993 19.2385 26.0957 19.0045 25.827C18.7791 25.5497 18.6665 25.1813 18.6665 24.722C18.6665 24.3753 18.7705 24.0547 18.9785 23.76C19.1865 23.4653 19.4811 23.2313 19.8625 23.058C20.2438 22.8847 20.6771 22.798 21.1625 22.798C21.9251 22.798 22.5405 22.993 23.0085 23.383C23.4765 23.7643 23.7278 24.293 23.7625 24.969H22.8525C22.8265 24.553 22.6618 24.2193 22.3585 23.968C22.0638 23.708 21.6565 23.578 21.1365 23.578C20.6771 23.578 20.3045 23.6863 20.0185 23.903C19.7325 24.1197 19.5895 24.3883 19.5895 24.709C19.5895 24.9863 19.6718 25.216 19.8365 25.398C20.0098 25.5713 20.2221 25.71 20.4735 25.814C20.7248 25.9093 21.0628 26.0177 21.4875 26.139C21.9988 26.2777 22.4061 26.412 22.7095 26.542C23.0128 26.672 23.2728 26.8627 23.4895 27.114C23.7061 27.3653 23.8188 27.699 23.8275 28.115C23.8275 28.4963 23.7235 28.8387 23.5155 29.142C23.3075 29.4367 23.0171 29.6707 22.6445 29.844C22.2718 30.0173 21.8428 30.104 21.3575 30.104ZM32.7424 26.087C32.7424 26.399 32.7338 26.6373 32.7164 26.802H26.8274C26.8534 27.3393 26.9834 27.7987 27.2174 28.18C27.4514 28.5613 27.7591 28.8517 28.1404 29.051C28.5218 29.2417 28.9378 29.337 29.3884 29.337C29.9778 29.337 30.4718 29.194 30.8704 28.908C31.2778 28.622 31.5464 28.2363 31.6764 27.751H32.6384C32.4651 28.4443 32.0924 29.012 31.5204 29.454C30.9571 29.8873 30.2464 30.104 29.3884 30.104C28.7211 30.104 28.1231 29.9567 27.5944 29.662C27.0658 29.3587 26.6498 28.934 26.3464 28.388C26.0518 27.8333 25.9044 27.1877 25.9044 26.451C25.9044 25.7143 26.0518 25.0687 26.3464 24.514C26.6411 23.9593 27.0528 23.5347 27.5814 23.24C28.1101 22.9453 28.7124 22.798 29.3884 22.798C30.0644 22.798 30.6538 22.9453 31.1564 23.24C31.6678 23.5347 32.0578 23.9333 32.3264 24.436C32.6038 24.93 32.7424 25.4803 32.7424 26.087ZM31.8194 26.061C31.8281 25.5323 31.7198 25.0817 31.4944 24.709C31.2778 24.3363 30.9788 24.0547 30.5974 23.864C30.2161 23.6733 29.8001 23.578 29.3494 23.578C28.6734 23.578 28.0971 23.7947 27.6204 24.228C27.1438 24.6613 26.8794 25.2723 26.8274 26.061H31.8194ZM43.6373 22.772C44.4693 22.772 45.1453 23.0363 45.6653 23.565C46.194 24.085 46.4583 24.8433 46.4583 25.84V30H45.5613V25.944C45.5613 25.1727 45.375 24.5833 45.0023 24.176C44.6297 23.7687 44.1227 23.565 43.4813 23.565C42.814 23.565 42.281 23.786 41.8823 24.228C41.4837 24.67 41.2843 25.3113 41.2843 26.152V30H40.3873V25.944C40.3873 25.1727 40.201 24.5833 39.8283 24.176C39.4557 23.7687 38.9443 23.565 38.2943 23.565C37.627 23.565 37.094 23.786 36.6953 24.228C36.2967 24.67 36.0973 25.3113 36.0973 26.152V30H35.1873V22.902H36.0973V24.124C36.3227 23.682 36.6433 23.3483 37.0593 23.123C37.4753 22.889 37.939 22.772 38.4503 22.772C39.0657 22.772 39.603 22.9193 40.0623 23.214C40.5303 23.5087 40.8683 23.942 41.0763 24.514C41.267 23.9507 41.592 23.5217 42.0513 23.227C42.5193 22.9237 43.048 22.772 43.6373 22.772ZM50.1563 24.475C50.3903 23.981 50.75 23.578 51.2353 23.266C51.7293 22.954 52.31 22.798 52.9773 22.798C53.6273 22.798 54.208 22.9497 54.7193 23.253C55.2307 23.5477 55.6293 23.9723 55.9153 24.527C56.21 25.073 56.3573 25.71 56.3573 26.438C56.3573 27.166 56.21 27.8073 55.9153 28.362C55.6293 28.9167 55.2263 29.3457 54.7063 29.649C54.195 29.9523 53.6187 30.104 52.9773 30.104C52.3013 30.104 51.7163 29.9523 51.2223 29.649C50.737 29.337 50.3817 28.934 50.1563 28.44V30H49.2593V20.38H50.1563V24.475ZM55.4343 26.438C55.4343 25.8487 55.3173 25.3417 55.0833 24.917C54.858 24.4837 54.546 24.1543 54.1473 23.929C53.7487 23.7037 53.298 23.591 52.7953 23.591C52.31 23.591 51.8637 23.708 51.4563 23.942C51.0577 24.176 50.7413 24.5097 50.5073 24.943C50.2733 25.3763 50.1563 25.879 50.1563 26.451C50.1563 27.023 50.2733 27.5257 50.5073 27.959C50.7413 28.3923 51.0577 28.726 51.4563 28.96C51.8637 29.194 52.31 29.311 52.7953 29.311C53.298 29.311 53.7487 29.1983 54.1473 28.973C54.546 28.739 54.858 28.4053 55.0833 27.972C55.3173 27.53 55.4343 27.0187 55.4343 26.438ZM59.7218 20.38V30H58.8118V20.38H59.7218ZM68.9845 26.087C68.9845 26.399 68.9758 26.6373 68.9585 26.802H63.0695C63.0955 27.3393 63.2255 27.7987 63.4595 28.18C63.6935 28.5613 64.0012 28.8517 64.3825 29.051C64.7638 29.2417 65.1798 29.337 65.6305 29.337C66.2198 29.337 66.7138 29.194 67.1125 28.908C67.5198 28.622 67.7885 28.2363 67.9185 27.751H68.8805C68.7072 28.4443 68.3345 29.012 67.7625 29.454C67.1992 29.8873 66.4885 30.104 65.6305 30.104C64.9632 30.104 64.3652 29.9567 63.8365 29.662C63.3078 29.3587 62.8918 28.934 62.5885 28.388C62.2938 27.8333 62.1465 27.1877 62.1465 26.451C62.1465 25.7143 62.2938 25.0687 62.5885 24.514C62.8832 23.9593 63.2948 23.5347 63.8235 23.24C64.3522 22.9453 64.9545 22.798 65.6305 22.798C66.3065 22.798 66.8958 22.9453 67.3985 23.24C67.9098 23.5347 68.2998 23.9333 68.5685 24.436C68.8458 24.93 68.9845 25.4803 68.9845 26.087ZM68.0615 26.061C68.0702 25.5323 67.9618 25.0817 67.7365 24.709C67.5198 24.3363 67.2208 24.0547 66.8395 23.864C66.4582 23.6733 66.0422 23.578 65.5915 23.578C64.9155 23.578 64.3392 23.7947 63.8625 24.228C63.3858 24.6613 63.1215 25.2723 63.0695 26.061H68.0615ZM75.3608 26.438C75.3608 25.71 75.5081 25.073 75.8028 24.527C76.0975 23.9723 76.5005 23.5477 77.0118 23.253C77.5318 22.9497 78.1168 22.798 78.7668 22.798C79.3908 22.798 79.9541 22.9497 80.4568 23.253C80.9595 23.5563 81.3278 23.9507 81.5618 24.436V20.38H82.4718V30H81.5618V28.414C81.3451 28.908 80.9898 29.3153 80.4958 29.636C80.0018 29.948 79.4211 30.104 78.7538 30.104C78.1038 30.104 77.5188 29.9523 76.9988 29.649C76.4875 29.3457 76.0845 28.9167 75.7898 28.362C75.5038 27.8073 75.3608 27.166 75.3608 26.438ZM81.5618 26.451C81.5618 25.879 81.4448 25.3763 81.2108 24.943C80.9768 24.5097 80.6561 24.176 80.2488 23.942C79.8501 23.708 79.4081 23.591 78.9228 23.591C78.4201 23.591 77.9695 23.7037 77.5708 23.929C77.1721 24.1543 76.8558 24.4837 76.6218 24.917C76.3965 25.3417 76.2838 25.8487 76.2838 26.438C76.2838 27.0187 76.3965 27.53 76.6218 27.972C76.8558 28.4053 77.1721 28.739 77.5708 28.973C77.9695 29.1983 78.4201 29.311 78.9228 29.311C79.4081 29.311 79.8501 29.194 80.2488 28.96C80.6561 28.726 80.9768 28.3923 81.2108 27.959C81.4448 27.5257 81.5618 27.023 81.5618 26.451ZM91.7513 26.087C91.7513 26.399 91.7426 26.6373 91.7253 26.802H85.8363C85.8623 27.3393 85.9923 27.7987 86.2263 28.18C86.4603 28.5613 86.7679 28.8517 87.1493 29.051C87.5306 29.2417 87.9466 29.337 88.3973 29.337C88.9866 29.337 89.4806 29.194 89.8793 28.908C90.2866 28.622 90.5553 28.2363 90.6853 27.751H91.6473C91.4739 28.4443 91.1013 29.012 90.5293 29.454C89.9659 29.8873 89.2553 30.104 88.3973 30.104C87.7299 30.104 87.1319 29.9567 86.6033 29.662C86.0746 29.3587 85.6586 28.934 85.3553 28.388C85.0606 27.8333 84.9133 27.1877 84.9133 26.451C84.9133 25.7143 85.0606 25.0687 85.3553 24.514C85.6499 23.9593 86.0616 23.5347 86.5903 23.24C87.1189 22.9453 87.7213 22.798 88.3973 22.798C89.0733 22.798 89.6626 22.9453 90.1653 23.24C90.6766 23.5347 91.0666 23.9333 91.3353 24.436C91.6126 24.93 91.7513 25.4803 91.7513 26.087ZM90.8283 26.061C90.8369 25.5323 90.7286 25.0817 90.5033 24.709C90.2866 24.3363 89.9876 24.0547 89.6063 23.864C89.2249 23.6733 88.8089 23.578 88.3583 23.578C87.6823 23.578 87.1059 23.7947 86.6293 24.228C86.1526 24.6613 85.8883 25.2723 85.8363 26.061H90.8283ZM96.6402 30.104C95.8255 30.104 95.1582 29.9177 94.6382 29.545C94.1268 29.1637 93.8408 28.648 93.7802 27.998H94.7162C94.7595 28.3967 94.9458 28.7217 95.2752 28.973C95.6132 29.2157 96.0638 29.337 96.6272 29.337C97.1212 29.337 97.5068 29.22 97.7842 28.986C98.0702 28.752 98.2132 28.4617 98.2132 28.115C98.2132 27.8723 98.1352 27.673 97.9792 27.517C97.8232 27.361 97.6238 27.2397 97.3812 27.153C97.1472 27.0577 96.8265 26.958 96.4192 26.854C95.8905 26.7153 95.4615 26.5767 95.1322 26.438C94.8028 26.2993 94.5212 26.0957 94.2872 25.827C94.0618 25.5497 93.9492 25.1813 93.9492 24.722C93.9492 24.3753 94.0532 24.0547 94.2612 23.76C94.4692 23.4653 94.7638 23.2313 95.1452 23.058C95.5265 22.8847 95.9598 22.798 96.4452 22.798C97.2078 22.798 97.8232 22.993 98.2912 23.383C98.7592 23.7643 99.0105 24.293 99.0452 24.969H98.1352C98.1092 24.553 97.9445 24.2193 97.6412 23.968C97.3465 23.708 96.9392 23.578 96.4192 23.578C95.9598 23.578 95.5872 23.6863 95.3012 23.903C95.0152 24.1197 94.8722 24.3883 94.8722 24.709C94.8722 24.9863 94.9545 25.216 95.1192 25.398C95.2925 25.5713 95.5048 25.71 95.7562 25.814C96.0075 25.9093 96.3455 26.0177 96.7702 26.139C97.2815 26.2777 97.6888 26.412 97.9922 26.542C98.2955 26.672 98.5555 26.8627 98.7722 27.114C98.9888 27.3653 99.1015 27.699 99.1102 28.115C99.1102 28.4963 99.0062 28.8387 98.7982 29.142C98.5902 29.4367 98.2998 29.6707 97.9272 29.844C97.5545 30.0173 97.1255 30.104 96.6402 30.104ZM114.401 22.772C115.233 22.772 115.909 23.0363 116.429 23.565C116.957 24.085 117.222 24.8433 117.222 25.84V30H116.325V25.944C116.325 25.1727 116.138 24.5833 115.766 24.176C115.393 23.7687 114.886 23.565 114.245 23.565C113.577 23.565 113.044 23.786 112.646 24.228C112.247 24.67 112.048 25.3113 112.048 26.152V30H111.151V25.944C111.151 25.1727 110.964 24.5833 110.592 24.176C110.219 23.7687 109.708 23.565 109.058 23.565C108.39 23.565 107.857 23.786 107.459 24.228C107.06 24.67 106.861 25.3113 106.861 26.152V30H105.951V22.902H106.861V24.124C107.086 23.682 107.407 23.3483 107.823 23.123C108.239 22.889 108.702 22.772 109.214 22.772C109.829 22.772 110.366 22.9193 110.826 23.214C111.294 23.5087 111.632 23.942 111.84 24.514C112.03 23.9507 112.355 23.5217 112.815 23.227C113.283 22.9237 113.811 22.772 114.401 22.772ZM123.129 30.104C122.462 30.104 121.86 29.9567 121.322 29.662C120.794 29.3587 120.373 28.934 120.061 28.388C119.758 27.8333 119.606 27.1877 119.606 26.451C119.606 25.7143 119.762 25.073 120.074 24.527C120.386 23.9723 120.811 23.5477 121.348 23.253C121.886 22.9497 122.488 22.798 123.155 22.798C123.823 22.798 124.425 22.9497 124.962 23.253C125.508 23.5477 125.933 23.9723 126.236 24.527C126.548 25.073 126.704 25.7143 126.704 26.451C126.704 27.179 126.548 27.8203 126.236 28.375C125.924 28.9297 125.495 29.3587 124.949 29.662C124.403 29.9567 123.797 30.104 123.129 30.104ZM123.129 29.311C123.597 29.311 124.031 29.207 124.429 28.999C124.828 28.7823 125.149 28.4617 125.391 28.037C125.643 27.6037 125.768 27.075 125.768 26.451C125.768 25.827 125.647 25.3027 125.404 24.878C125.162 24.4447 124.841 24.124 124.442 23.916C124.044 23.6993 123.61 23.591 123.142 23.591C122.674 23.591 122.241 23.6993 121.842 23.916C121.444 24.124 121.123 24.4447 120.88 24.878C120.646 25.3027 120.529 25.827 120.529 26.451C120.529 27.075 120.646 27.6037 120.88 28.037C121.123 28.4617 121.439 28.7823 121.829 28.999C122.228 29.207 122.661 29.311 123.129 29.311ZM130.053 24.163C130.253 23.721 130.556 23.3787 130.963 23.136C131.379 22.8933 131.886 22.772 132.484 22.772V23.721H132.237C131.579 23.721 131.05 23.8987 130.651 24.254C130.253 24.6093 130.053 25.203 130.053 26.035V30H129.143V22.902H130.053V24.163ZM134.217 26.451C134.217 25.7143 134.365 25.073 134.659 24.527C134.954 23.9723 135.361 23.5477 135.881 23.253C136.401 22.9497 136.995 22.798 137.662 22.798C138.538 22.798 139.257 23.0147 139.82 23.448C140.392 23.8813 140.761 24.4707 140.925 25.216H139.95C139.829 24.7047 139.565 24.306 139.157 24.02C138.759 23.7253 138.26 23.578 137.662 23.578C137.186 23.578 136.757 23.6863 136.375 23.903C135.994 24.1197 135.691 24.4447 135.465 24.878C135.249 25.3027 135.14 25.827 135.14 26.451C135.14 27.075 135.249 27.6037 135.465 28.037C135.691 28.4703 135.994 28.7953 136.375 29.012C136.757 29.2287 137.186 29.337 137.662 29.337C138.26 29.337 138.759 29.194 139.157 28.908C139.565 28.6133 139.829 28.206 139.95 27.686H140.925C140.761 28.414 140.392 28.999 139.82 29.441C139.248 29.883 138.529 30.104 137.662 30.104C136.995 30.104 136.401 29.9567 135.881 29.662C135.361 29.3587 134.954 28.934 134.659 28.388C134.365 27.8333 134.217 27.1877 134.217 26.451ZM149.808 26.087C149.808 26.399 149.799 26.6373 149.782 26.802H143.893C143.919 27.3393 144.049 27.7987 144.283 28.18C144.517 28.5613 144.825 28.8517 145.206 29.051C145.587 29.2417 146.003 29.337 146.454 29.337C147.043 29.337 147.537 29.194 147.936 28.908C148.343 28.622 148.612 28.2363 148.742 27.751H149.704C149.531 28.4443 149.158 29.012 148.586 29.454C148.023 29.8873 147.312 30.104 146.454 30.104C145.787 30.104 145.189 29.9567 144.66 29.662C144.131 29.3587 143.715 28.934 143.412 28.388C143.117 27.8333 142.97 27.1877 142.97 26.451C142.97 25.7143 143.117 25.0687 143.412 24.514C143.707 23.9593 144.118 23.5347 144.647 23.24C145.176 22.9453 145.778 22.798 146.454 22.798C147.13 22.798 147.719 22.9453 148.222 23.24C148.733 23.5347 149.123 23.9333 149.392 24.436C149.669 24.93 149.808 25.4803 149.808 26.087ZM148.885 26.061C148.894 25.5323 148.785 25.0817 148.56 24.709C148.343 24.3363 148.044 24.0547 147.663 23.864C147.282 23.6733 146.866 23.578 146.415 23.578C145.739 23.578 145.163 23.7947 144.686 24.228C144.209 24.6613 143.945 25.2723 143.893 26.061H148.885ZM151.837 26.438C151.837 25.71 151.98 25.073 152.266 24.527C152.561 23.9723 152.964 23.5477 153.475 23.253C153.995 22.9497 154.58 22.798 155.23 22.798C155.906 22.798 156.487 22.954 156.972 23.266C157.466 23.578 157.821 23.9767 158.038 24.462V22.902H158.948V30H158.038V28.427C157.813 28.9123 157.453 29.3153 156.959 29.636C156.474 29.948 155.893 30.104 155.217 30.104C154.576 30.104 153.995 29.9523 153.475 29.649C152.964 29.3457 152.561 28.9167 152.266 28.362C151.98 27.8073 151.837 27.166 151.837 26.438ZM158.038 26.451C158.038 25.879 157.921 25.3763 157.687 24.943C157.453 24.5097 157.132 24.176 156.725 23.942C156.326 23.708 155.884 23.591 155.399 23.591C154.896 23.591 154.446 23.7037 154.047 23.929C153.648 24.1543 153.332 24.4837 153.098 24.917C152.873 25.3417 152.76 25.8487 152.76 26.438C152.76 27.0187 152.873 27.53 153.098 27.972C153.332 28.4053 153.648 28.739 154.047 28.973C154.446 29.1983 154.896 29.311 155.399 29.311C155.884 29.311 156.326 29.194 156.725 28.96C157.132 28.726 157.453 28.3923 157.687 27.959C157.921 27.5257 158.038 27.023 158.038 26.451ZM167.954 22.902V30H167.044V28.752C166.836 29.194 166.516 29.532 166.082 29.766C165.649 30 165.164 30.117 164.626 30.117C163.777 30.117 163.084 29.857 162.546 29.337C162.009 28.8083 161.74 28.0457 161.74 27.049V22.902H162.637V26.945C162.637 27.7163 162.828 28.3057 163.209 28.713C163.599 29.1203 164.128 29.324 164.795 29.324C165.48 29.324 166.026 29.1073 166.433 28.674C166.841 28.2407 167.044 27.6037 167.044 26.763V22.902H167.954ZM174.53 30L172.697 27.14L170.929 30H169.967L172.255 26.451L169.993 22.902H171.02L172.827 25.723L174.582 22.902H175.531L173.269 26.412L175.557 30H174.53ZM181.503 26.438C181.503 25.71 181.65 25.073 181.945 24.527C182.239 23.9723 182.642 23.5477 183.154 23.253C183.674 22.9497 184.259 22.798 184.909 22.798C185.533 22.798 186.096 22.9497 186.599 23.253C187.101 23.5563 187.47 23.9507 187.704 24.436V20.38H188.614V30H187.704V28.414C187.487 28.908 187.132 29.3153 186.638 29.636C186.144 29.948 185.563 30.104 184.896 30.104C184.246 30.104 183.661 29.9523 183.141 29.649C182.629 29.3457 182.226 28.9167 181.932 28.362C181.646 27.8073 181.503 27.166 181.503 26.438ZM187.704 26.451C187.704 25.879 187.587 25.3763 187.353 24.943C187.119 24.5097 186.798 24.176 186.391 23.942C185.992 23.708 185.55 23.591 185.065 23.591C184.562 23.591 184.111 23.7037 183.713 23.929C183.314 24.1543 182.998 24.4837 182.764 24.917C182.538 25.3417 182.426 25.8487 182.426 26.438C182.426 27.0187 182.538 27.53 182.764 27.972C182.998 28.4053 183.314 28.739 183.713 28.973C184.111 29.1983 184.562 29.311 185.065 29.311C185.55 29.311 185.992 29.194 186.391 28.96C186.798 28.726 187.119 28.3923 187.353 27.959C187.587 27.5257 187.704 27.023 187.704 26.451ZM197.893 26.087C197.893 26.399 197.885 26.6373 197.867 26.802H191.978C192.004 27.3393 192.134 27.7987 192.368 28.18C192.602 28.5613 192.91 28.8517 193.291 29.051C193.673 29.2417 194.089 29.337 194.539 29.337C195.129 29.337 195.623 29.194 196.021 28.908C196.429 28.622 196.697 28.2363 196.827 27.751H197.789C197.616 28.4443 197.243 29.012 196.671 29.454C196.108 29.8873 195.397 30.104 194.539 30.104C193.872 30.104 193.274 29.9567 192.745 29.662C192.217 29.3587 191.801 28.934 191.497 28.388C191.203 27.8333 191.055 27.1877 191.055 26.451C191.055 25.7143 191.203 25.0687 191.497 24.514C191.792 23.9593 192.204 23.5347 192.732 23.24C193.261 22.9453 193.863 22.798 194.539 22.798C195.215 22.798 195.805 22.9453 196.307 23.24C196.819 23.5347 197.209 23.9333 197.477 24.436C197.755 24.93 197.893 25.4803 197.893 26.087ZM196.97 26.061C196.979 25.5323 196.871 25.0817 196.645 24.709C196.429 24.3363 196.13 24.0547 195.748 23.864C195.367 23.6733 194.951 23.578 194.5 23.578C193.824 23.578 193.248 23.7947 192.771 24.228C192.295 24.6613 192.03 25.2723 191.978 26.061H196.97ZM205.869 23.669V28.076C205.869 28.5093 205.951 28.8083 206.116 28.973C206.28 29.1377 206.571 29.22 206.987 29.22H207.819V30H206.844C206.202 30 205.726 29.8527 205.414 29.558C205.102 29.2547 204.946 28.7607 204.946 28.076V23.669H203.958V22.902H204.946V21.121H205.869V22.902H207.819V23.669H205.869ZM216.521 26.087C216.521 26.399 216.513 26.6373 216.495 26.802H210.606C210.632 27.3393 210.762 27.7987 210.996 28.18C211.23 28.5613 211.538 28.8517 211.919 29.051C212.301 29.2417 212.717 29.337 213.167 29.337C213.757 29.337 214.251 29.194 214.649 28.908C215.057 28.622 215.325 28.2363 215.455 27.751H216.417C216.244 28.4443 215.871 29.012 215.299 29.454C214.736 29.8873 214.025 30.104 213.167 30.104C212.5 30.104 211.902 29.9567 211.373 29.662C210.845 29.3587 210.429 28.934 210.125 28.388C209.831 27.8333 209.683 27.1877 209.683 26.451C209.683 25.7143 209.831 25.0687 210.125 24.514C210.42 23.9593 210.832 23.5347 211.36 23.24C211.889 22.9453 212.491 22.798 213.167 22.798C213.843 22.798 214.433 22.9453 214.935 23.24C215.447 23.5347 215.837 23.9333 216.105 24.436C216.383 24.93 216.521 25.4803 216.521 26.087ZM215.598 26.061C215.607 25.5323 215.499 25.0817 215.273 24.709C215.057 24.3363 214.758 24.0547 214.376 23.864C213.995 23.6733 213.579 23.578 213.128 23.578C212.452 23.578 211.876 23.7947 211.399 24.228C210.923 24.6613 210.658 25.2723 210.606 26.061H215.598ZM222.684 30L220.851 27.14L219.083 30H218.121L220.409 26.451L218.147 22.902H219.174L220.981 25.723L222.736 22.902H223.685L221.423 26.412L223.711 30H222.684ZM226.909 23.669V28.076C226.909 28.5093 226.991 28.8083 227.156 28.973C227.32 29.1377 227.611 29.22 228.027 29.22H228.859V30H227.884C227.242 30 226.766 29.8527 226.454 29.558C226.142 29.2547 225.986 28.7607 225.986 28.076V23.669H224.998V22.902H225.986V21.121H226.909V22.902H228.859V23.669H226.909ZM237.561 26.087C237.561 26.399 237.553 26.6373 237.535 26.802H231.646C231.672 27.3393 231.802 27.7987 232.036 28.18C232.27 28.5613 232.578 28.8517 232.959 29.051C233.341 29.2417 233.757 29.337 234.207 29.337C234.797 29.337 235.291 29.194 235.689 28.908C236.097 28.622 236.365 28.2363 236.495 27.751H237.457C237.284 28.4443 236.911 29.012 236.339 29.454C235.776 29.8873 235.065 30.104 234.207 30.104C233.54 30.104 232.942 29.9567 232.413 29.662C231.885 29.3587 231.469 28.934 231.165 28.388C230.871 27.8333 230.723 27.1877 230.723 26.451C230.723 25.7143 230.871 25.0687 231.165 24.514C231.46 23.9593 231.872 23.5347 232.4 23.24C232.929 22.9453 233.531 22.798 234.207 22.798C234.883 22.798 235.473 22.9453 235.975 23.24C236.487 23.5347 236.877 23.9333 237.145 24.436C237.423 24.93 237.561 25.4803 237.561 26.087ZM236.638 26.061C236.647 25.5323 236.539 25.0817 236.313 24.709C236.097 24.3363 235.798 24.0547 235.416 23.864C235.035 23.6733 234.619 23.578 234.168 23.578C233.492 23.578 232.916 23.7947 232.439 24.228C231.963 24.6613 231.698 25.2723 231.646 26.061H236.638ZM245.251 24.462C245.476 23.9853 245.831 23.591 246.317 23.279C246.811 22.9583 247.396 22.798 248.072 22.798C248.713 22.798 249.289 22.9497 249.801 23.253C250.321 23.5477 250.724 23.9723 251.01 24.527C251.304 25.073 251.452 25.71 251.452 26.438C251.452 27.166 251.304 27.8073 251.01 28.362C250.724 28.9167 250.321 29.3457 249.801 29.649C249.289 29.9523 248.713 30.104 248.072 30.104C247.404 30.104 246.824 29.948 246.33 29.636C245.836 29.3153 245.476 28.9167 245.251 28.44V33.354H244.354V22.902H245.251V24.462ZM250.529 26.438C250.529 25.8487 250.412 25.3417 250.178 24.917C249.952 24.4837 249.64 24.1543 249.242 23.929C248.843 23.7037 248.392 23.591 247.89 23.591C247.404 23.591 246.958 23.708 246.551 23.942C246.152 24.176 245.836 24.5097 245.602 24.943C245.368 25.3763 245.251 25.879 245.251 26.451C245.251 27.023 245.368 27.5257 245.602 27.959C245.836 28.3923 246.152 28.726 246.551 28.96C246.958 29.194 247.404 29.311 247.89 29.311C248.392 29.311 248.843 29.1983 249.242 28.973C249.64 28.739 249.952 28.4053 250.178 27.972C250.412 27.53 250.529 27.0187 250.529 26.438ZM257.013 30.104C256.346 30.104 255.744 29.9567 255.206 29.662C254.678 29.3587 254.257 28.934 253.945 28.388C253.642 27.8333 253.49 27.1877 253.49 26.451C253.49 25.7143 253.646 25.073 253.958 24.527C254.27 23.9723 254.695 23.5477 255.232 23.253C255.77 22.9497 256.372 22.798 257.039 22.798C257.707 22.798 258.309 22.9497 258.846 23.253C259.392 23.5477 259.817 23.9723 260.12 24.527C260.432 25.073 260.588 25.7143 260.588 26.451C260.588 27.179 260.432 27.8203 260.12 28.375C259.808 28.9297 259.379 29.3587 258.833 29.662C258.287 29.9567 257.681 30.104 257.013 30.104ZM257.013 29.311C257.481 29.311 257.915 29.207 258.313 28.999C258.712 28.7823 259.033 28.4617 259.275 28.037C259.527 27.6037 259.652 27.075 259.652 26.451C259.652 25.827 259.531 25.3027 259.288 24.878C259.046 24.4447 258.725 24.124 258.326 23.916C257.928 23.6993 257.494 23.591 257.026 23.591C256.558 23.591 256.125 23.6993 255.726 23.916C255.328 24.124 255.007 24.4447 254.764 24.878C254.53 25.3027 254.413 25.827 254.413 26.451C254.413 27.075 254.53 27.6037 254.764 28.037C255.007 28.4617 255.323 28.7823 255.713 28.999C256.112 29.207 256.545 29.311 257.013 29.311ZM269.176 22.902V30H268.266V28.752C268.058 29.194 267.737 29.532 267.304 29.766C266.871 30 266.385 30.117 265.848 30.117C264.999 30.117 264.305 29.857 263.768 29.337C263.231 28.8083 262.962 28.0457 262.962 27.049V22.902H263.859V26.945C263.859 27.7163 264.05 28.3057 264.431 28.713C264.821 29.1203 265.35 29.324 266.017 29.324C266.702 29.324 267.248 29.1073 267.655 28.674C268.062 28.2407 268.266 27.6037 268.266 26.763V22.902H269.176ZM272.944 24.163C273.143 23.721 273.446 23.3787 273.854 23.136C274.27 22.8933 274.777 22.772 275.375 22.772V23.721H275.128C274.469 23.721 273.94 23.8987 273.542 24.254C273.143 24.6093 272.944 25.203 272.944 26.035V30H272.034V22.902H272.944V24.163ZM1.95 44.163C2.14933 43.721 2.45267 43.3787 2.86 43.136C3.276 42.8933 3.783 42.772 4.381 42.772V43.721H4.134C3.47533 43.721 2.94667 43.8987 2.548 44.254C2.14933 44.6093 1.95 45.203 1.95 46.035V50H1.04V42.902H1.95V44.163ZM12.952 46.087C12.952 46.399 12.9433 46.6373 12.926 46.802H7.03696C7.06296 47.3393 7.19296 47.7987 7.42696 48.18C7.66096 48.5613 7.96863 48.8517 8.34996 49.051C8.73129 49.2417 9.14729 49.337 9.59796 49.337C10.1873 49.337 10.6813 49.194 11.08 48.908C11.4873 48.622 11.756 48.2363 11.886 47.751H12.848C12.6746 48.4443 12.302 49.012 11.73 49.454C11.1666 49.8873 10.456 50.104 9.59796 50.104C8.93063 50.104 8.33263 49.9567 7.80396 49.662C7.27529 49.3587 6.85929 48.934 6.55596 48.388C6.26129 47.8333 6.11396 47.1877 6.11396 46.451C6.11396 45.7143 6.26129 45.0687 6.55596 44.514C6.85063 43.9593 7.26229 43.5347 7.79096 43.24C8.31963 42.9453 8.92196 42.798 9.59796 42.798C10.274 42.798 10.8633 42.9453 11.366 43.24C11.8773 43.5347 12.2673 43.9333 12.536 44.436C12.8133 44.93 12.952 45.4803 12.952 46.087ZM12.029 46.061C12.0376 45.5323 11.9293 45.0817 11.704 44.709C11.4873 44.3363 11.1883 44.0547 10.807 43.864C10.4256 43.6733 10.0096 43.578 9.55896 43.578C8.88296 43.578 8.30663 43.7947 7.82996 44.228C7.35329 44.6613 7.08896 45.2723 7.03696 46.061H12.029ZM10.729 40.809L8.06396 42.356V41.654L10.729 39.99V40.809ZM14.9809 46.438C14.9809 45.71 15.1239 45.073 15.4099 44.527C15.7045 43.9723 16.1075 43.5477 16.6189 43.253C17.1389 42.9497 17.7239 42.798 18.3739 42.798C19.0499 42.798 19.6305 42.954 20.1159 43.266C20.6099 43.578 20.9652 43.9767 21.1819 44.462V42.902H22.0919V50H21.1819V48.427C20.9565 48.9123 20.5969 49.3153 20.1029 49.636C19.6175 49.948 19.0369 50.104 18.3609 50.104C17.7195 50.104 17.1389 49.9523 16.6189 49.649C16.1075 49.3457 15.7045 48.9167 15.4099 48.362C15.1239 47.8073 14.9809 47.166 14.9809 46.438ZM21.1819 46.451C21.1819 45.879 21.0649 45.3763 20.8309 44.943C20.5969 44.5097 20.2762 44.176 19.8689 43.942C19.4702 43.708 19.0282 43.591 18.5429 43.591C18.0402 43.591 17.5895 43.7037 17.1909 43.929C16.7922 44.1543 16.4759 44.4837 16.2419 44.917C16.0165 45.3417 15.9039 45.8487 15.9039 46.438C15.9039 47.0187 16.0165 47.53 16.2419 47.972C16.4759 48.4053 16.7922 48.739 17.1909 48.973C17.5895 49.1983 18.0402 49.311 18.5429 49.311C19.0282 49.311 19.4702 49.194 19.8689 48.96C20.2762 48.726 20.5969 48.3923 20.8309 47.959C21.0649 47.5257 21.1819 47.023 21.1819 46.451ZM25.8593 40.38V50H24.9493V40.38H25.8593ZM29.155 41.563C28.973 41.563 28.817 41.498 28.687 41.368C28.557 41.238 28.492 41.0777 28.492 40.887C28.492 40.6963 28.557 40.5403 28.687 40.419C28.817 40.289 28.973 40.224 29.155 40.224C29.337 40.224 29.493 40.289 29.623 40.419C29.753 40.5403 29.818 40.6963 29.818 40.887C29.818 41.0777 29.753 41.238 29.623 41.368C29.493 41.498 29.337 41.563 29.155 41.563ZM29.61 42.902V50H28.7V42.902H29.61ZM34.8947 50.104C34.0801 50.104 33.4127 49.9177 32.8927 49.545C32.3814 49.1637 32.0954 48.648 32.0347 47.998H32.9707C33.0141 48.3967 33.2004 48.7217 33.5297 48.973C33.8677 49.2157 34.3184 49.337 34.8817 49.337C35.3757 49.337 35.7614 49.22 36.0387 48.986C36.3247 48.752 36.4677 48.4617 36.4677 48.115C36.4677 47.8723 36.3897 47.673 36.2337 47.517C36.0777 47.361 35.8784 47.2397 35.6357 47.153C35.4017 47.0577 35.0811 46.958 34.6737 46.854C34.1451 46.7153 33.7161 46.5767 33.3867 46.438C33.0574 46.2993 32.7757 46.0957 32.5417 45.827C32.3164 45.5497 32.2037 45.1813 32.2037 44.722C32.2037 44.3753 32.3077 44.0547 32.5157 43.76C32.7237 43.4653 33.0184 43.2313 33.3997 43.058C33.7811 42.8847 34.2144 42.798 34.6997 42.798C35.4624 42.798 36.0777 42.993 36.5457 43.383C37.0137 43.7643 37.2651 44.293 37.2997 44.969H36.3897C36.3637 44.553 36.1991 44.2193 35.8957 43.968C35.6011 43.708 35.1937 43.578 34.6737 43.578C34.2144 43.578 33.8417 43.6863 33.5557 43.903C33.2697 44.1197 33.1267 44.3883 33.1267 44.709C33.1267 44.9863 33.2091 45.216 33.3737 45.398C33.5471 45.5713 33.7594 45.71 34.0107 45.814C34.2621 45.9093 34.6001 46.0177 35.0247 46.139C35.5361 46.2777 35.9434 46.412 36.2467 46.542C36.5501 46.672 36.8101 46.8627 37.0267 47.114C37.2434 47.3653 37.3561 47.699 37.3647 48.115C37.3647 48.4963 37.2607 48.8387 37.0527 49.142C36.8447 49.4367 36.5544 49.6707 36.1817 49.844C35.8091 50.0173 35.3801 50.104 34.8947 50.104ZM46.2797 46.087C46.2797 46.399 46.271 46.6373 46.2537 46.802H40.3647C40.3907 47.3393 40.5207 47.7987 40.7547 48.18C40.9887 48.5613 41.2964 48.8517 41.6777 49.051C42.059 49.2417 42.475 49.337 42.9257 49.337C43.515 49.337 44.009 49.194 44.4077 48.908C44.815 48.622 45.0837 48.2363 45.2137 47.751H46.1757C46.0024 48.4443 45.6297 49.012 45.0577 49.454C44.4944 49.8873 43.7837 50.104 42.9257 50.104C42.2584 50.104 41.6604 49.9567 41.1317 49.662C40.603 49.3587 40.187 48.934 39.8837 48.388C39.589 47.8333 39.4417 47.1877 39.4417 46.451C39.4417 45.7143 39.589 45.0687 39.8837 44.514C40.1784 43.9593 40.59 43.5347 41.1187 43.24C41.6474 42.9453 42.2497 42.798 42.9257 42.798C43.6017 42.798 44.191 42.9453 44.6937 43.24C45.205 43.5347 45.595 43.9333 45.8637 44.436C46.141 44.93 46.2797 45.4803 46.2797 46.087ZM45.3567 46.061C45.3654 45.5323 45.257 45.0817 45.0317 44.709C44.815 44.3363 44.516 44.0547 44.1347 43.864C43.7534 43.6733 43.3374 43.578 42.8867 43.578C42.2107 43.578 41.6344 43.7947 41.1577 44.228C40.681 44.6613 40.4167 45.2723 40.3647 46.061H45.3567ZM49.6346 44.163C49.8339 43.721 50.1373 43.3787 50.5446 43.136C50.9606 42.8933 51.4676 42.772 52.0656 42.772V43.721H51.8186C51.1599 43.721 50.6313 43.8987 50.2326 44.254C49.8339 44.6093 49.6346 45.203 49.6346 46.035V50H48.7246V42.902H49.6346V44.163ZM64.711 42.902V50H63.801V48.752C63.593 49.194 63.2723 49.532 62.839 49.766C62.4056 50 61.9203 50.117 61.383 50.117C60.5336 50.117 59.8403 49.857 59.303 49.337C58.7656 48.8083 58.497 48.0457 58.497 47.049V42.902H59.394V46.945C59.394 47.7163 59.5846 48.3057 59.966 48.713C60.356 49.1203 60.8846 49.324 61.552 49.324C62.2366 49.324 62.7826 49.1073 63.19 48.674C63.5973 48.2407 63.801 47.6037 63.801 46.763V42.902H64.711ZM70.8965 42.772C71.7459 42.772 72.4392 43.0363 72.9765 43.565C73.5139 44.085 73.7825 44.8433 73.7825 45.84V50H72.8855V45.944C72.8855 45.1727 72.6905 44.5833 72.3005 44.176C71.9192 43.7687 71.3949 43.565 70.7275 43.565C70.0429 43.565 69.4969 43.7817 69.0895 44.215C68.6822 44.6483 68.4785 45.2853 68.4785 46.126V50H67.5685V42.902H68.4785V44.111C68.7039 43.6777 69.0289 43.3483 69.4535 43.123C69.8782 42.889 70.3592 42.772 70.8965 42.772ZM81.8325 40.38V50H80.9225V40.38H81.8325ZM85.1282 41.563C84.9462 41.563 84.7902 41.498 84.6602 41.368C84.5302 41.238 84.4652 41.0777 84.4652 40.887C84.4652 40.6963 84.5302 40.5403 84.6602 40.419C84.7902 40.289 84.9462 40.224 85.1282 40.224C85.3102 40.224 85.4662 40.289 85.5962 40.419C85.7262 40.5403 85.7912 40.6963 85.7912 40.887C85.7912 41.0777 85.7262 41.238 85.5962 41.368C85.4662 41.498 85.3102 41.563 85.1282 41.563ZM85.5832 42.902V50H84.6732V42.902H85.5832ZM90.9459 49.116L93.3379 42.902H94.2999L91.4529 50H90.4259L87.5789 42.902H88.5539L90.9459 49.116ZM97.2232 44.163C97.4226 43.721 97.7259 43.3787 98.1332 43.136C98.5492 42.8933 99.0562 42.772 99.6542 42.772V43.721H99.4072C98.7486 43.721 98.2199 43.8987 97.8212 44.254C97.4226 44.6093 97.2232 45.203 97.2232 46.035V50H96.3132V42.902H97.2232V44.163ZM108.225 46.087C108.225 46.399 108.217 46.6373 108.199 46.802H102.31C102.336 47.3393 102.466 47.7987 102.7 48.18C102.934 48.5613 103.242 48.8517 103.623 49.051C104.005 49.2417 104.421 49.337 104.871 49.337C105.461 49.337 105.955 49.194 106.353 48.908C106.761 48.622 107.029 48.2363 107.159 47.751H108.121C107.948 48.4443 107.575 49.012 107.003 49.454C106.44 49.8873 105.729 50.104 104.871 50.104C104.204 50.104 103.606 49.9567 103.077 49.662C102.549 49.3587 102.133 48.934 101.829 48.388C101.535 47.8333 101.387 47.1877 101.387 46.451C101.387 45.7143 101.535 45.0687 101.829 44.514C102.124 43.9593 102.536 43.5347 103.064 43.24C103.593 42.9453 104.195 42.798 104.871 42.798C105.547 42.798 106.137 42.9453 106.639 43.24C107.151 43.5347 107.541 43.9333 107.809 44.436C108.087 44.93 108.225 45.4803 108.225 46.087ZM107.302 46.061C107.311 45.5323 107.203 45.0817 106.977 44.709C106.761 44.3363 106.462 44.0547 106.08 43.864C105.699 43.6733 105.283 43.578 104.832 43.578C104.156 43.578 103.58 43.7947 103.103 44.228C102.627 44.6613 102.362 45.2723 102.31 46.061H107.302ZM117.462 50.104C116.647 50.104 115.98 49.9177 115.46 49.545C114.948 49.1637 114.662 48.648 114.602 47.998H115.538C115.581 48.3967 115.767 48.7217 116.097 48.973C116.435 49.2157 116.885 49.337 117.449 49.337C117.943 49.337 118.328 49.22 118.606 48.986C118.892 48.752 119.035 48.4617 119.035 48.115C119.035 47.8723 118.957 47.673 118.801 47.517C118.645 47.361 118.445 47.2397 118.203 47.153C117.969 47.0577 117.648 46.958 117.241 46.854C116.712 46.7153 116.283 46.5767 115.954 46.438C115.624 46.2993 115.343 46.0957 115.109 45.827C114.883 45.5497 114.771 45.1813 114.771 44.722C114.771 44.3753 114.875 44.0547 115.083 43.76C115.291 43.4653 115.585 43.2313 115.967 43.058C116.348 42.8847 116.781 42.798 117.267 42.798C118.029 42.798 118.645 42.993 119.113 43.383C119.581 43.7643 119.832 44.293 119.867 44.969H118.957C118.931 44.553 118.766 44.2193 118.463 43.968C118.168 43.708 117.761 43.578 117.241 43.578C116.781 43.578 116.409 43.6863 116.123 43.903C115.837 44.1197 115.694 44.3883 115.694 44.709C115.694 44.9863 115.776 45.216 115.941 45.398C116.114 45.5713 116.326 45.71 116.578 45.814C116.829 45.9093 117.167 46.0177 117.592 46.139C118.103 46.2777 118.51 46.412 118.814 46.542C119.117 46.672 119.377 46.8627 119.594 47.114C119.81 47.3653 119.923 47.699 119.932 48.115C119.932 48.4963 119.828 48.8387 119.62 49.142C119.412 49.4367 119.121 49.6707 118.749 49.844C118.376 50.0173 117.947 50.104 117.462 50.104ZM123.321 44.462C123.547 43.9853 123.902 43.591 124.387 43.279C124.881 42.9583 125.466 42.798 126.142 42.798C126.784 42.798 127.36 42.9497 127.871 43.253C128.391 43.5477 128.794 43.9723 129.08 44.527C129.375 45.073 129.522 45.71 129.522 46.438C129.522 47.166 129.375 47.8073 129.08 48.362C128.794 48.9167 128.391 49.3457 127.871 49.649C127.36 49.9523 126.784 50.104 126.142 50.104C125.475 50.104 124.894 49.948 124.4 49.636C123.906 49.3153 123.547 48.9167 123.321 48.44V53.354H122.424V42.902H123.321V44.462ZM128.599 46.438C128.599 45.8487 128.482 45.3417 128.248 44.917C128.023 44.4837 127.711 44.1543 127.312 43.929C126.914 43.7037 126.463 43.591 125.96 43.591C125.475 43.591 125.029 43.708 124.621 43.942C124.223 44.176 123.906 44.5097 123.672 44.943C123.438 45.3763 123.321 45.879 123.321 46.451C123.321 47.023 123.438 47.5257 123.672 47.959C123.906 48.3923 124.223 48.726 124.621 48.96C125.029 49.194 125.475 49.311 125.96 49.311C126.463 49.311 126.914 49.1983 127.312 48.973C127.711 48.739 128.023 48.4053 128.248 47.972C128.482 47.53 128.599 47.0187 128.599 46.438ZM138.399 46.087C138.399 46.399 138.39 46.6373 138.373 46.802H132.484C132.51 47.3393 132.64 47.7987 132.874 48.18C133.108 48.5613 133.416 48.8517 133.797 49.051C134.178 49.2417 134.594 49.337 135.045 49.337C135.634 49.337 136.128 49.194 136.527 48.908C136.934 48.622 137.203 48.2363 137.333 47.751H138.295C138.122 48.4443 137.749 49.012 137.177 49.454C136.614 49.8873 135.903 50.104 135.045 50.104C134.378 50.104 133.78 49.9567 133.251 49.662C132.722 49.3587 132.306 48.934 132.003 48.388C131.708 47.8333 131.561 47.1877 131.561 46.451C131.561 45.7143 131.708 45.0687 132.003 44.514C132.298 43.9593 132.709 43.5347 133.238 43.24C133.767 42.9453 134.369 42.798 135.045 42.798C135.721 42.798 136.31 42.9453 136.813 43.24C137.324 43.5347 137.714 43.9333 137.983 44.436C138.26 44.93 138.399 45.4803 138.399 46.087ZM137.476 46.061C137.485 45.5323 137.376 45.0817 137.151 44.709C136.934 44.3363 136.635 44.0547 136.254 43.864C135.873 43.6733 135.457 43.578 135.006 43.578C134.33 43.578 133.754 43.7947 133.277 44.228C132.8 44.6613 132.536 45.2723 132.484 46.061H137.476ZM136.176 40.809L133.511 42.356V41.654L136.176 39.99V40.809ZM140.428 46.451C140.428 45.7143 140.575 45.073 140.87 44.527C141.164 43.9723 141.572 43.5477 142.092 43.253C142.612 42.9497 143.205 42.798 143.873 42.798C144.748 42.798 145.468 43.0147 146.031 43.448C146.603 43.8813 146.971 44.4707 147.136 45.216H146.161C146.039 44.7047 145.775 44.306 145.368 44.02C144.969 43.7253 144.471 43.578 143.873 43.578C143.396 43.578 142.967 43.6863 142.586 43.903C142.204 44.1197 141.901 44.4447 141.676 44.878C141.459 45.3027 141.351 45.827 141.351 46.451C141.351 47.075 141.459 47.6037 141.676 48.037C141.901 48.4703 142.204 48.7953 142.586 49.012C142.967 49.2287 143.396 49.337 143.873 49.337C144.471 49.337 144.969 49.194 145.368 48.908C145.775 48.6133 146.039 48.206 146.161 47.686H147.136C146.971 48.414 146.603 48.999 146.031 49.441C145.459 49.883 144.739 50.104 143.873 50.104C143.205 50.104 142.612 49.9567 142.092 49.662C141.572 49.3587 141.164 48.934 140.87 48.388C140.575 47.8333 140.428 47.1877 140.428 46.451ZM150.051 41.563C149.869 41.563 149.713 41.498 149.583 41.368C149.453 41.238 149.388 41.0777 149.388 40.887C149.388 40.6963 149.453 40.5403 149.583 40.419C149.713 40.289 149.869 40.224 150.051 40.224C150.233 40.224 150.389 40.289 150.519 40.419C150.649 40.5403 150.714 40.6963 150.714 40.887C150.714 41.0777 150.649 41.238 150.519 41.368C150.389 41.498 150.233 41.563 150.051 41.563ZM150.506 42.902V50H149.596V42.902H150.506ZM161.797 42.772C162.629 42.772 163.305 43.0363 163.825 43.565C164.354 44.085 164.618 44.8433 164.618 45.84V50H163.721V45.944C163.721 45.1727 163.535 44.5833 163.162 44.176C162.79 43.7687 162.283 43.565 161.641 43.565C160.974 43.565 160.441 43.786 160.042 44.228C159.644 44.67 159.444 45.3113 159.444 46.152V50H158.547V45.944C158.547 45.1727 158.361 44.5833 157.988 44.176C157.616 43.7687 157.104 43.565 156.454 43.565C155.787 43.565 155.254 43.786 154.855 44.228C154.457 44.67 154.257 45.3113 154.257 46.152V50H153.347V42.902H154.257V44.124C154.483 43.682 154.803 43.3483 155.219 43.123C155.635 42.889 156.099 42.772 156.61 42.772C157.226 42.772 157.763 42.9193 158.222 43.214C158.69 43.5087 159.028 43.942 159.236 44.514C159.427 43.9507 159.752 43.5217 160.211 43.227C160.679 42.9237 161.208 42.772 161.797 42.772ZM173.841 46.087C173.841 46.399 173.833 46.6373 173.815 46.802H167.926C167.952 47.3393 168.082 47.7987 168.316 48.18C168.55 48.5613 168.858 48.8517 169.239 49.051C169.621 49.2417 170.037 49.337 170.487 49.337C171.077 49.337 171.571 49.194 171.969 48.908C172.377 48.622 172.645 48.2363 172.775 47.751H173.737C173.564 48.4443 173.191 49.012 172.619 49.454C172.056 49.8873 171.345 50.104 170.487 50.104C169.82 50.104 169.222 49.9567 168.693 49.662C168.165 49.3587 167.749 48.934 167.445 48.388C167.151 47.8333 167.003 47.1877 167.003 46.451C167.003 45.7143 167.151 45.0687 167.445 44.514C167.74 43.9593 168.152 43.5347 168.68 43.24C169.209 42.9453 169.811 42.798 170.487 42.798C171.163 42.798 171.753 42.9453 172.255 43.24C172.767 43.5347 173.157 43.9333 173.425 44.436C173.703 44.93 173.841 45.4803 173.841 46.087ZM172.918 46.061C172.927 45.5323 172.819 45.0817 172.593 44.709C172.377 44.3363 172.078 44.0547 171.696 43.864C171.315 43.6733 170.899 43.578 170.448 43.578C169.772 43.578 169.196 43.7947 168.719 44.228C168.243 44.6613 167.978 45.2723 167.926 46.061H172.918ZM179.614 42.772C180.463 42.772 181.157 43.0363 181.694 43.565C182.231 44.085 182.5 44.8433 182.5 45.84V50H181.603V45.944C181.603 45.1727 181.408 44.5833 181.018 44.176C180.637 43.7687 180.112 43.565 179.445 43.565C178.76 43.565 178.214 43.7817 177.807 44.215C177.4 44.6483 177.196 45.2853 177.196 46.126V50H176.286V42.902H177.196V44.111C177.421 43.6777 177.746 43.3483 178.171 43.123C178.596 42.889 179.077 42.772 179.614 42.772ZM189.224 46.438C189.224 45.71 189.371 45.073 189.666 44.527C189.961 43.9723 190.364 43.5477 190.875 43.253C191.395 42.9497 191.98 42.798 192.63 42.798C193.254 42.798 193.817 42.9497 194.32 43.253C194.823 43.5563 195.191 43.9507 195.425 44.436V40.38H196.335V50H195.425V48.414C195.208 48.908 194.853 49.3153 194.359 49.636C193.865 49.948 193.284 50.104 192.617 50.104C191.967 50.104 191.382 49.9523 190.862 49.649C190.351 49.3457 189.948 48.9167 189.653 48.362C189.367 47.8073 189.224 47.166 189.224 46.438ZM195.425 46.451C195.425 45.879 195.308 45.3763 195.074 44.943C194.84 44.5097 194.519 44.176 194.112 43.942C193.713 43.708 193.271 43.591 192.786 43.591C192.283 43.591 191.833 43.7037 191.434 43.929C191.035 44.1543 190.719 44.4837 190.485 44.917C190.26 45.3417 190.147 45.8487 190.147 46.438C190.147 47.0187 190.26 47.53 190.485 47.972C190.719 48.4053 191.035 48.739 191.434 48.973C191.833 49.1983 192.283 49.311 192.786 49.311C193.271 49.311 193.713 49.194 194.112 48.96C194.519 48.726 194.84 48.3923 195.074 47.959C195.308 47.5257 195.425 47.023 195.425 46.451ZM205.614 46.087C205.614 46.399 205.606 46.6373 205.588 46.802H199.699C199.725 47.3393 199.855 47.7987 200.089 48.18C200.323 48.5613 200.631 48.8517 201.012 49.051C201.394 49.2417 201.81 49.337 202.26 49.337C202.85 49.337 203.344 49.194 203.742 48.908C204.15 48.622 204.418 48.2363 204.548 47.751H205.51C205.337 48.4443 204.964 49.012 204.392 49.454C203.829 49.8873 203.118 50.104 202.26 50.104C201.593 50.104 200.995 49.9567 200.466 49.662C199.938 49.3587 199.522 48.934 199.218 48.388C198.924 47.8333 198.776 47.1877 198.776 46.451C198.776 45.7143 198.924 45.0687 199.218 44.514C199.513 43.9593 199.925 43.5347 200.453 43.24C200.982 42.9453 201.584 42.798 202.26 42.798C202.936 42.798 203.526 42.9453 204.028 43.24C204.54 43.5347 204.93 43.9333 205.198 44.436C205.476 44.93 205.614 45.4803 205.614 46.087ZM204.691 46.061C204.7 45.5323 204.592 45.0817 204.366 44.709C204.15 44.3363 203.851 44.0547 203.469 43.864C203.088 43.6733 202.672 43.578 202.221 43.578C201.545 43.578 200.969 43.7947 200.492 44.228C200.016 44.6613 199.751 45.2723 199.699 46.061H204.691ZM213.304 44.462C213.529 43.9853 213.884 43.591 214.37 43.279C214.864 42.9583 215.449 42.798 216.125 42.798C216.766 42.798 217.342 42.9497 217.854 43.253C218.374 43.5477 218.777 43.9723 219.063 44.527C219.357 45.073 219.505 45.71 219.505 46.438C219.505 47.166 219.357 47.8073 219.063 48.362C218.777 48.9167 218.374 49.3457 217.854 49.649C217.342 49.9523 216.766 50.104 216.125 50.104C215.457 50.104 214.877 49.948 214.383 49.636C213.889 49.3153 213.529 48.9167 213.304 48.44V53.354H212.407V42.902H213.304V44.462ZM218.582 46.438C218.582 45.8487 218.465 45.3417 218.231 44.917C218.005 44.4837 217.693 44.1543 217.295 43.929C216.896 43.7037 216.445 43.591 215.943 43.591C215.457 43.591 215.011 43.708 214.604 43.942C214.205 44.176 213.889 44.5097 213.655 44.943C213.421 45.3763 213.304 45.879 213.304 46.451C213.304 47.023 213.421 47.5257 213.655 47.959C213.889 48.3923 214.205 48.726 214.604 48.96C215.011 49.194 215.457 49.311 215.943 49.311C216.445 49.311 216.896 49.1983 217.295 48.973C217.693 48.739 218.005 48.4053 218.231 47.972C218.465 47.53 218.582 47.0187 218.582 46.438ZM225.066 50.104C224.399 50.104 223.797 49.9567 223.259 49.662C222.731 49.3587 222.31 48.934 221.998 48.388C221.695 47.8333 221.543 47.1877 221.543 46.451C221.543 45.7143 221.699 45.073 222.011 44.527C222.323 43.9723 222.748 43.5477 223.285 43.253C223.823 42.9497 224.425 42.798 225.092 42.798C225.76 42.798 226.362 42.9497 226.899 43.253C227.445 43.5477 227.87 43.9723 228.173 44.527C228.485 45.073 228.641 45.7143 228.641 46.451C228.641 47.179 228.485 47.8203 228.173 48.375C227.861 48.9297 227.432 49.3587 226.886 49.662C226.34 49.9567 225.734 50.104 225.066 50.104ZM225.066 49.311C225.534 49.311 225.968 49.207 226.366 48.999C226.765 48.7823 227.086 48.4617 227.328 48.037C227.58 47.6037 227.705 47.075 227.705 46.451C227.705 45.827 227.584 45.3027 227.341 44.878C227.099 44.4447 226.778 44.124 226.379 43.916C225.981 43.6993 225.547 43.591 225.079 43.591C224.611 43.591 224.178 43.6993 223.779 43.916C223.381 44.124 223.06 44.4447 222.817 44.878C222.583 45.3027 222.466 45.827 222.466 46.451C222.466 47.075 222.583 47.6037 222.817 48.037C223.06 48.4617 223.376 48.7823 223.766 48.999C224.165 49.207 224.598 49.311 225.066 49.311ZM231.99 40.38V50H231.08V40.38H231.99ZM235.286 41.563C235.104 41.563 234.948 41.498 234.818 41.368C234.688 41.238 234.623 41.0777 234.623 40.887C234.623 40.6963 234.688 40.5403 234.818 40.419C234.948 40.289 235.104 40.224 235.286 40.224C235.468 40.224 235.624 40.289 235.754 40.419C235.884 40.5403 235.949 40.6963 235.949 40.887C235.949 41.0777 235.884 41.238 235.754 41.368C235.624 41.498 235.468 41.563 235.286 41.563ZM235.741 42.902V50H234.831V42.902H235.741ZM238.165 46.451C238.165 45.7143 238.313 45.073 238.607 44.527C238.902 43.9723 239.309 43.5477 239.829 43.253C240.349 42.9497 240.943 42.798 241.61 42.798C242.486 42.798 243.205 43.0147 243.768 43.448C244.34 43.8813 244.709 44.4707 244.873 45.216H243.898C243.777 44.7047 243.513 44.306 243.105 44.02C242.707 43.7253 242.208 43.578 241.61 43.578C241.134 43.578 240.705 43.6863 240.323 43.903C239.942 44.1197 239.639 44.4447 239.413 44.878C239.197 45.3027 239.088 45.827 239.088 46.451C239.088 47.075 239.197 47.6037 239.413 48.037C239.639 48.4703 239.942 48.7953 240.323 49.012C240.705 49.2287 241.134 49.337 241.61 49.337C242.208 49.337 242.707 49.194 243.105 48.908C243.513 48.6133 243.777 48.206 243.898 47.686H244.873C244.709 48.414 244.34 48.999 243.768 49.441C243.196 49.883 242.477 50.104 241.61 50.104C240.943 50.104 240.349 49.9567 239.829 49.662C239.309 49.3587 238.902 48.934 238.607 48.388C238.313 47.8333 238.165 47.1877 238.165 46.451ZM253.756 46.087C253.756 46.399 253.747 46.6373 253.73 46.802H247.841C247.867 47.3393 247.997 47.7987 248.231 48.18C248.465 48.5613 248.773 48.8517 249.154 49.051C249.535 49.2417 249.951 49.337 250.402 49.337C250.991 49.337 251.485 49.194 251.884 48.908C252.291 48.622 252.56 48.2363 252.69 47.751H253.652C253.479 48.4443 253.106 49.012 252.534 49.454C251.971 49.8873 251.26 50.104 250.402 50.104C249.735 50.104 249.137 49.9567 248.608 49.662C248.079 49.3587 247.663 48.934 247.36 48.388C247.065 47.8333 246.918 47.1877 246.918 46.451C246.918 45.7143 247.065 45.0687 247.36 44.514C247.655 43.9593 248.066 43.5347 248.595 43.24C249.124 42.9453 249.726 42.798 250.402 42.798C251.078 42.798 251.667 42.9453 252.17 43.24C252.681 43.5347 253.071 43.9333 253.34 44.436C253.617 44.93 253.756 45.4803 253.756 46.087ZM252.833 46.061C252.842 45.5323 252.733 45.0817 252.508 44.709C252.291 44.3363 251.992 44.0547 251.611 43.864C251.23 43.6733 250.814 43.578 250.363 43.578C249.687 43.578 249.111 43.7947 248.634 44.228C248.157 44.6613 247.893 45.2723 247.841 46.061H252.833ZM258.645 50.104C257.83 50.104 257.163 49.9177 256.643 49.545C256.132 49.1637 255.846 48.648 255.785 47.998H256.721C256.764 48.3967 256.951 48.7217 257.28 48.973C257.618 49.2157 258.069 49.337 258.632 49.337C259.126 49.337 259.512 49.22 259.789 48.986C260.075 48.752 260.218 48.4617 260.218 48.115C260.218 47.8723 260.14 47.673 259.984 47.517C259.828 47.361 259.629 47.2397 259.386 47.153C259.152 47.0577 258.831 46.958 258.424 46.854C257.895 46.7153 257.466 46.5767 257.137 46.438C256.808 46.2993 256.526 46.0957 256.292 45.827C256.067 45.5497 255.954 45.1813 255.954 44.722C255.954 44.3753 256.058 44.0547 256.266 43.76C256.474 43.4653 256.769 43.2313 257.15 43.058C257.531 42.8847 257.965 42.798 258.45 42.798C259.213 42.798 259.828 42.993 260.296 43.383C260.764 43.7643 261.015 44.293 261.05 44.969H260.14C260.114 44.553 259.949 44.2193 259.646 43.968C259.351 43.708 258.944 43.578 258.424 43.578C257.965 43.578 257.592 43.6863 257.306 43.903C257.02 44.1197 256.877 44.3883 256.877 44.709C256.877 44.9863 256.959 45.216 257.124 45.398C257.297 45.5713 257.51 45.71 257.761 45.814C258.012 45.9093 258.35 46.0177 258.775 46.139C259.286 46.2777 259.694 46.412 259.997 46.542C260.3 46.672 260.56 46.8627 260.777 47.114C260.994 47.3653 261.106 47.699 261.115 48.115C261.115 48.4963 261.011 48.8387 260.803 49.142C260.595 49.4367 260.305 49.6707 259.932 49.844C259.559 50.0173 259.13 50.104 258.645 50.104ZM267.539 46.438C267.539 45.71 267.687 45.073 267.981 44.527C268.276 43.9723 268.679 43.5477 269.19 43.253C269.71 42.9497 270.295 42.798 270.945 42.798C271.569 42.798 272.133 42.9497 272.635 43.253C273.138 43.5563 273.506 43.9507 273.74 44.436V40.38H274.65V50H273.74V48.414C273.524 48.908 273.168 49.3153 272.674 49.636C272.18 49.948 271.6 50.104 270.932 50.104C270.282 50.104 269.697 49.9523 269.177 49.649C268.666 49.3457 268.263 48.9167 267.968 48.362C267.682 47.8073 267.539 47.166 267.539 46.438ZM273.74 46.451C273.74 45.879 273.623 45.3763 273.389 44.943C273.155 44.5097 272.835 44.176 272.427 43.942C272.029 43.708 271.587 43.591 271.101 43.591C270.599 43.591 270.148 43.7037 269.749 43.929C269.351 44.1543 269.034 44.4837 268.8 44.917C268.575 45.3417 268.462 45.8487 268.462 46.438C268.462 47.0187 268.575 47.53 268.8 47.972C269.034 48.4053 269.351 48.739 269.749 48.973C270.148 49.1983 270.599 49.311 271.101 49.311C271.587 49.311 272.029 49.194 272.427 48.96C272.835 48.726 273.155 48.3923 273.389 47.959C273.623 47.5257 273.74 47.023 273.74 46.451ZM283.93 46.087C283.93 46.399 283.921 46.6373 283.904 46.802H278.015C278.041 47.3393 278.171 47.7987 278.405 48.18C278.639 48.5613 278.947 48.8517 279.328 49.051C279.709 49.2417 280.125 49.337 280.576 49.337C281.165 49.337 281.659 49.194 282.058 48.908C282.465 48.622 282.734 48.2363 282.864 47.751H283.826C283.653 48.4443 283.28 49.012 282.708 49.454C282.145 49.8873 281.434 50.104 280.576 50.104C279.909 50.104 279.311 49.9567 278.782 49.662C278.253 49.3587 277.837 48.934 277.534 48.388C277.239 47.8333 277.092 47.1877 277.092 46.451C277.092 45.7143 277.239 45.0687 277.534 44.514C277.829 43.9593 278.24 43.5347 278.769 43.24C279.298 42.9453 279.9 42.798 280.576 42.798C281.252 42.798 281.841 42.9453 282.344 43.24C282.855 43.5347 283.245 43.9333 283.514 44.436C283.791 44.93 283.93 45.4803 283.93 46.087ZM283.007 46.061C283.016 45.5323 282.907 45.0817 282.682 44.709C282.465 44.3363 282.166 44.0547 281.785 43.864C281.404 43.6733 280.988 43.578 280.537 43.578C279.861 43.578 279.285 43.7947 278.808 44.228C278.331 44.6613 278.067 45.2723 278.015 46.061H283.007ZM2.223 63.669V68.076C2.223 68.5093 2.30533 68.8083 2.47 68.973C2.63467 69.1377 2.925 69.22 3.341 69.22H4.173V70H3.198C2.55667 70 2.08 69.8527 1.768 69.558C1.456 69.2547 1.3 68.7607 1.3 68.076V63.669H0.312V62.902H1.3V61.121H2.223V62.902H4.173V63.669H2.223ZM12.8758 66.087C12.8758 66.399 12.8671 66.6373 12.8498 66.802H6.96079C6.98679 67.3393 7.11679 67.7987 7.35079 68.18C7.58479 68.5613 7.89246 68.8517 8.27379 69.051C8.65512 69.2417 9.07112 69.337 9.52179 69.337C10.1111 69.337 10.6051 69.194 11.0038 68.908C11.4111 68.622 11.6798 68.2363 11.8098 67.751H12.7718C12.5985 68.4443 12.2258 69.012 11.6538 69.454C11.0905 69.8873 10.3798 70.104 9.52179 70.104C8.85446 70.104 8.25646 69.9567 7.72779 69.662C7.19912 69.3587 6.78312 68.934 6.47979 68.388C6.18512 67.8333 6.03779 67.1877 6.03779 66.451C6.03779 65.7143 6.18512 65.0687 6.47979 64.514C6.77446 63.9593 7.18612 63.5347 7.71479 63.24C8.24346 62.9453 8.84579 62.798 9.52179 62.798C10.1978 62.798 10.7871 62.9453 11.2898 63.24C11.8011 63.5347 12.1911 63.9333 12.4598 64.436C12.7371 64.93 12.8758 65.4803 12.8758 66.087ZM11.9528 66.061C11.9615 65.5323 11.8531 65.0817 11.6278 64.709C11.4111 64.3363 11.1121 64.0547 10.7308 63.864C10.3495 63.6733 9.93346 63.578 9.48279 63.578C8.80679 63.578 8.23046 63.7947 7.75379 64.228C7.27712 64.6613 7.01279 65.2723 6.96079 66.061H11.9528ZM19.0387 70L17.2057 67.14L15.4377 70H14.4757L16.7637 66.451L14.5017 62.902H15.5287L17.3357 65.723L19.0907 62.902H20.0397L17.7777 66.412L20.0657 70H19.0387ZM23.2632 63.669V68.076C23.2632 68.5093 23.3455 68.8083 23.5102 68.973C23.6749 69.1377 23.9652 69.22 24.3812 69.22H25.2132V70H24.2382C23.5969 70 23.1202 69.8527 22.8082 69.558C22.4962 69.2547 22.3402 68.7607 22.3402 68.076V63.669H21.3522V62.902H22.3402V61.121H23.2632V62.902H25.2132V63.669H23.2632ZM33.916 66.087C33.916 66.399 33.9073 66.6373 33.89 66.802H28.001C28.027 67.3393 28.157 67.7987 28.391 68.18C28.625 68.5613 28.9327 68.8517 29.314 69.051C29.6953 69.2417 30.1113 69.337 30.562 69.337C31.1513 69.337 31.6453 69.194 32.044 68.908C32.4513 68.622 32.72 68.2363 32.85 67.751H33.812C33.6387 68.4443 33.266 69.012 32.694 69.454C32.1307 69.8873 31.42 70.104 30.562 70.104C29.8947 70.104 29.2967 69.9567 28.768 69.662C28.2393 69.3587 27.8233 68.934 27.52 68.388C27.2253 67.8333 27.078 67.1877 27.078 66.451C27.078 65.7143 27.2253 65.0687 27.52 64.514C27.8147 63.9593 28.2263 63.5347 28.755 63.24C29.2837 62.9453 29.886 62.798 30.562 62.798C31.238 62.798 31.8273 62.9453 32.33 63.24C32.8413 63.5347 33.2313 63.9333 33.5 64.436C33.7773 64.93 33.916 65.4803 33.916 66.087ZM32.993 66.061C33.0017 65.5323 32.8933 65.0817 32.668 64.709C32.4513 64.3363 32.1523 64.0547 31.771 63.864C31.3897 63.6733 30.9737 63.578 30.523 63.578C29.847 63.578 29.2707 63.7947 28.794 64.228C28.3173 64.6613 28.053 65.2723 28.001 66.061H32.993Z" fill="#C8C8C8"/>
<path d="M41.5143 70.104C41.1243 70.104 40.8036 69.9913 40.5523 69.766C40.3096 69.532 40.1883 69.246 40.1883 68.908C40.1883 68.5613 40.3096 68.271 40.5523 68.037C40.8036 67.803 41.1243 67.686 41.5143 67.686C41.8956 67.686 42.2076 67.803 42.4503 68.037C42.7016 68.271 42.8273 68.5613 42.8273 68.908C42.8273 69.246 42.7016 69.532 42.4503 69.766C42.2076 69.9913 41.8956 70.104 41.5143 70.104ZM45.9632 70.104C45.5732 70.104 45.2526 69.9913 45.0012 69.766C44.7586 69.532 44.6372 69.246 44.6372 68.908C44.6372 68.5613 44.7586 68.271 45.0012 68.037C45.2526 67.803 45.5732 67.686 45.9632 67.686C46.3446 67.686 46.6566 67.803 46.8992 68.037C47.1506 68.271 47.2762 68.5613 47.2762 68.908C47.2762 69.246 47.1506 69.532 46.8992 69.766C46.6566 69.9913 46.3446 70.104 45.9632 70.104ZM50.4122 70.104C50.0222 70.104 49.7015 69.9913 49.4502 69.766C49.2075 69.532 49.0862 69.246 49.0862 68.908C49.0862 68.5613 49.2075 68.271 49.4502 68.037C49.7015 67.803 50.0222 67.686 50.4122 67.686C50.7935 67.686 51.1055 67.803 51.3482 68.037C51.5995 68.271 51.7252 68.5613 51.7252 68.908C51.7252 69.246 51.5995 69.532 51.3482 69.766C51.1055 69.9913 50.7935 70.104 50.4122 70.104ZM63.0771 62.668C63.9785 62.668 64.6935 62.941 65.2221 63.487C65.7595 64.033 66.0281 64.7913 66.0281 65.762V70H63.8181V66.061C63.8181 65.593 63.6925 65.2333 63.4411 64.982C63.1985 64.722 62.8605 64.592 62.4271 64.592C61.9938 64.592 61.6515 64.722 61.4001 64.982C61.1575 65.2333 61.0361 65.593 61.0361 66.061V70H58.8261V66.061C58.8261 65.593 58.7005 65.2333 58.4491 64.982C58.2065 64.722 57.8685 64.592 57.4351 64.592C57.0018 64.592 56.6595 64.722 56.4081 64.982C56.1655 65.2333 56.0441 65.593 56.0441 66.061V70H53.8211V62.746H56.0441V63.656C56.2695 63.3527 56.5641 63.1143 56.9281 62.941C57.2921 62.759 57.7038 62.668 58.1631 62.668C58.7091 62.668 59.1945 62.785 59.6191 63.019C60.0525 63.253 60.3905 63.5867 60.6331 64.02C60.8845 63.6213 61.2268 63.2963 61.6601 63.045C62.0935 62.7937 62.5658 62.668 63.0771 62.668ZM71.6648 70.104C70.9542 70.104 70.3128 69.9523 69.7408 69.649C69.1775 69.3457 68.7312 68.9123 68.4018 68.349C68.0812 67.7857 67.9208 67.127 67.9208 66.373C67.9208 65.6277 68.0855 64.9733 68.4148 64.41C68.7442 63.838 69.1948 63.4003 69.7668 63.097C70.3388 62.7937 70.9802 62.642 71.6908 62.642C72.4015 62.642 73.0428 62.7937 73.6148 63.097C74.1868 63.4003 74.6375 63.838 74.9668 64.41C75.2962 64.9733 75.4608 65.6277 75.4608 66.373C75.4608 67.1183 75.2918 67.777 74.9538 68.349C74.6245 68.9123 74.1695 69.3457 73.5888 69.649C73.0168 69.9523 72.3755 70.104 71.6648 70.104ZM71.6648 68.18C72.0895 68.18 72.4492 68.024 72.7438 67.712C73.0472 67.4 73.1988 66.9537 73.1988 66.373C73.1988 65.7923 73.0515 65.346 72.7568 65.034C72.4708 64.722 72.1155 64.566 71.6908 64.566C71.2575 64.566 70.8978 64.722 70.6118 65.034C70.3258 65.3373 70.1828 65.7837 70.1828 66.373C70.1828 66.9537 70.3215 67.4 70.5988 67.712C70.8848 68.024 71.2402 68.18 71.6648 68.18ZM79.6432 63.955C79.9032 63.5563 80.2282 63.2443 80.6182 63.019C81.0082 62.785 81.4415 62.668 81.9182 62.668V65.021H81.3072C80.7525 65.021 80.3365 65.1423 80.0592 65.385C79.7818 65.619 79.6432 66.035 79.6432 66.633V70H77.4202V62.746H79.6432V63.955ZM90.5987 66.256C90.5987 66.464 90.5857 66.6807 90.5597 66.906H85.5287C85.5634 67.3567 85.7064 67.7033 85.9577 67.946C86.2177 68.18 86.5341 68.297 86.9067 68.297C87.4614 68.297 87.8471 68.063 88.0637 67.595H90.4297C90.3084 68.0717 90.0874 68.5007 89.7667 68.882C89.4547 69.2633 89.0604 69.5623 88.5837 69.779C88.1071 69.9957 87.5741 70.104 86.9847 70.104C86.2741 70.104 85.6414 69.9523 85.0867 69.649C84.5321 69.3457 84.0987 68.9123 83.7867 68.349C83.4747 67.7857 83.3187 67.127 83.3187 66.373C83.3187 65.619 83.4704 64.9603 83.7737 64.397C84.0857 63.8337 84.5191 63.4003 85.0737 63.097C85.6284 62.7937 86.2654 62.642 86.9847 62.642C87.6867 62.642 88.3107 62.7893 88.8567 63.084C89.4027 63.3787 89.8274 63.799 90.1307 64.345C90.4427 64.891 90.5987 65.528 90.5987 66.256ZM88.3237 65.671C88.3237 65.2897 88.1937 64.9863 87.9337 64.761C87.6737 64.5357 87.3487 64.423 86.9587 64.423C86.5861 64.423 86.2697 64.5313 86.0097 64.748C85.7584 64.9647 85.6024 65.2723 85.5417 65.671H88.3237Z" fill="white"/>
</svg>
